<?xml version="1.0" encoding="utf-8" standalone="no"?>
<!DOCTYPE svg PUBLIC "-//W3C//DTD SVG 1.1//EN"
  "http://www.w3.org/Graphics/SVG/1.1/DTD/svg11.dtd">
<svg xmlns:xlink="http://www.w3.org/1999/xlink" width="607.4625pt" height="391.094688pt" viewBox="0 0 607.4625 391.094688" xmlns="http://www.w3.org/2000/svg" version="1.1">
 <metadata>
  <rdf:RDF xmlns:dc="http://purl.org/dc/elements/1.1/" xmlns:cc="http://creativecommons.org/ns#" xmlns:rdf="http://www.w3.org/1999/02/22-rdf-syntax-ns#">
   <cc:Work>
    <dc:type rdf:resource="http://purl.org/dc/dcmitype/StillImage"/>
    <dc:date>2024-07-20T14:22:59.105022</dc:date>
    <dc:format>image/svg+xml</dc:format>
    <dc:creator>
     <cc:Agent>
      <dc:title>Matplotlib v3.8.2, https://matplotlib.org/</dc:title>
     </cc:Agent>
    </dc:creator>
   </cc:Work>
  </rdf:RDF>
 </metadata>
 <defs>
  <style type="text/css">*{stroke-linejoin: round; stroke-linecap: butt}</style>
 </defs>
 <g id="figure_1">
  <g id="patch_1">
   <path d="M 0 391.094688 
L 607.4625 391.094688 
L 607.4625 0 
L 0 0 
z
" style="fill: #ffffff"/>
  </g>
  <g id="axes_1">
   <g id="patch_2">
    <path d="M 42.2625 355.59 
L 600.2625 355.59 
L 600.2625 22.95 
L 42.2625 22.95 
z
" style="fill: #ffffff"/>
   </g>
   <g id="PathCollection_1">
    <defs>
     <path id="m5565d93b58" d="M 0 3 
C 0.795609 3 1.55874 2.683901 2.12132 2.12132 
C 2.683901 1.55874 3 0.795609 3 0 
C 3 -0.795609 2.683901 -1.55874 2.12132 -2.12132 
C 1.55874 -2.683901 0.795609 -3 0 -3 
C -0.795609 -3 -1.55874 -2.683901 -2.12132 -2.12132 
C -2.683901 -1.55874 -3 -0.795609 -3 0 
C -3 0.795609 -2.683901 1.55874 -2.12132 2.12132 
C -1.55874 2.683901 -0.795609 3 0 3 
z
" style="stroke: #1f77b4"/>
    </defs>
    <g clip-path="url(#pb3f0c151e4)">
     <use xlink:href="#m5565d93b58" x="321.2625" y="189.27" style="fill: #1f77b4; stroke: #1f77b4"/>
    </g>
   </g>
   <g id="PathCollection_2">
    <defs>
     <path id="m989199077c" d="M 0 3 
C 0.795609 3 1.55874 2.683901 2.12132 2.12132 
C 2.683901 1.55874 3 0.795609 3 0 
C 3 -0.795609 2.683901 -1.55874 2.12132 -2.12132 
C 1.55874 -2.683901 0.795609 -3 0 -3 
C -0.795609 -3 -1.55874 -2.683901 -2.12132 -2.12132 
C -2.683901 -1.55874 -3 -0.795609 -3 0 
C -3 0.795609 -2.683901 1.55874 -2.12132 2.12132 
C -1.55874 2.683901 -0.795609 3 0 3 
z
" style="stroke: #ff7f0e"/>
    </defs>
    <g clip-path="url(#pb3f0c151e4)">
     <use xlink:href="#m989199077c" x="321.2625" y="189.27" style="fill: #ff7f0e; stroke: #ff7f0e"/>
    </g>
   </g>
   <g id="PathCollection_3">
    <defs>
     <path id="me4203c1b4e" d="M 0 3 
C 0.795609 3 1.55874 2.683901 2.12132 2.12132 
C 2.683901 1.55874 3 0.795609 3 0 
C 3 -0.795609 2.683901 -1.55874 2.12132 -2.12132 
C 1.55874 -2.683901 0.795609 -3 0 -3 
C -0.795609 -3 -1.55874 -2.683901 -2.12132 -2.12132 
C -2.683901 -1.55874 -3 -0.795609 -3 0 
C -3 0.795609 -2.683901 1.55874 -2.12132 2.12132 
C -1.55874 2.683901 -0.795609 3 0 3 
z
" style="stroke: #2ca02c"/>
    </defs>
    <g clip-path="url(#pb3f0c151e4)">
     <use xlink:href="#me4203c1b4e" x="321.2625" y="189.27" style="fill: #2ca02c; stroke: #2ca02c"/>
    </g>
   </g>
   <g id="PathCollection_4">
    <defs>
     <path id="m0cb5b2e9a5" d="M 0 3 
C 0.795609 3 1.55874 2.683901 2.12132 2.12132 
C 2.683901 1.55874 3 0.795609 3 0 
C 3 -0.795609 2.683901 -1.55874 2.12132 -2.12132 
C 1.55874 -2.683901 0.795609 -3 0 -3 
C -0.795609 -3 -1.55874 -2.683901 -2.12132 -2.12132 
C -2.683901 -1.55874 -3 -0.795609 -3 0 
C -3 0.795609 -2.683901 1.55874 -2.12132 2.12132 
C -1.55874 2.683901 -0.795609 3 0 3 
z
" style="stroke: #d62728"/>
    </defs>
    <g clip-path="url(#pb3f0c151e4)">
     <use xlink:href="#m0cb5b2e9a5" x="321.2625" y="189.27" style="fill: #d62728; stroke: #d62728"/>
    </g>
   </g>
   <g id="PathCollection_5">
    <defs>
     <path id="m3aa5482cba" d="M 0 3 
C 0.795609 3 1.55874 2.683901 2.12132 2.12132 
C 2.683901 1.55874 3 0.795609 3 0 
C 3 -0.795609 2.683901 -1.55874 2.12132 -2.12132 
C 1.55874 -2.683901 0.795609 -3 0 -3 
C -0.795609 -3 -1.55874 -2.683901 -2.12132 -2.12132 
C -2.683901 -1.55874 -3 -0.795609 -3 0 
C -3 0.795609 -2.683901 1.55874 -2.12132 2.12132 
C -1.55874 2.683901 -0.795609 3 0 3 
z
" style="stroke: #9467bd"/>
    </defs>
    <g clip-path="url(#pb3f0c151e4)">
     <use xlink:href="#m3aa5482cba" x="321.2625" y="189.27" style="fill: #9467bd; stroke: #9467bd"/>
    </g>
   </g>
   <g id="PathCollection_6">
    <defs>
     <path id="m94ae95734b" d="M 0 3 
C 0.795609 3 1.55874 2.683901 2.12132 2.12132 
C 2.683901 1.55874 3 0.795609 3 0 
C 3 -0.795609 2.683901 -1.55874 2.12132 -2.12132 
C 1.55874 -2.683901 0.795609 -3 0 -3 
C -0.795609 -3 -1.55874 -2.683901 -2.12132 -2.12132 
C -2.683901 -1.55874 -3 -0.795609 -3 0 
C -3 0.795609 -2.683901 1.55874 -2.12132 2.12132 
C -1.55874 2.683901 -0.795609 3 0 3 
z
" style="stroke: #8c564b"/>
    </defs>
    <g clip-path="url(#pb3f0c151e4)">
     <use xlink:href="#m94ae95734b" x="321.2625" y="189.27" style="fill: #8c564b; stroke: #8c564b"/>
    </g>
   </g>
   <g id="PathCollection_7">
    <defs>
     <path id="m5dbbfd4933" d="M 0 3 
C 0.795609 3 1.55874 2.683901 2.12132 2.12132 
C 2.683901 1.55874 3 0.795609 3 0 
C 3 -0.795609 2.683901 -1.55874 2.12132 -2.12132 
C 1.55874 -2.683901 0.795609 -3 0 -3 
C -0.795609 -3 -1.55874 -2.683901 -2.12132 -2.12132 
C -2.683901 -1.55874 -3 -0.795609 -3 0 
C -3 0.795609 -2.683901 1.55874 -2.12132 2.12132 
C -1.55874 2.683901 -0.795609 3 0 3 
z
" style="stroke: #e377c2"/>
    </defs>
    <g clip-path="url(#pb3f0c151e4)">
     <use xlink:href="#m5dbbfd4933" x="321.2625" y="189.27" style="fill: #e377c2; stroke: #e377c2"/>
    </g>
   </g>
   <g id="PathCollection_8">
    <defs>
     <path id="mcaae377ee5" d="M 0 3 
C 0.795609 3 1.55874 2.683901 2.12132 2.12132 
C 2.683901 1.55874 3 0.795609 3 0 
C 3 -0.795609 2.683901 -1.55874 2.12132 -2.12132 
C 1.55874 -2.683901 0.795609 -3 0 -3 
C -0.795609 -3 -1.55874 -2.683901 -2.12132 -2.12132 
C -2.683901 -1.55874 -3 -0.795609 -3 0 
C -3 0.795609 -2.683901 1.55874 -2.12132 2.12132 
C -1.55874 2.683901 -0.795609 3 0 3 
z
" style="stroke: #7f7f7f"/>
    </defs>
    <g clip-path="url(#pb3f0c151e4)">
     <use xlink:href="#mcaae377ee5" x="321.2625" y="189.27" style="fill: #7f7f7f; stroke: #7f7f7f"/>
    </g>
   </g>
   <g id="PathCollection_9">
    <defs>
     <path id="mfb85be1aef" d="M 0 3 
C 0.795609 3 1.55874 2.683901 2.12132 2.12132 
C 2.683901 1.55874 3 0.795609 3 0 
C 3 -0.795609 2.683901 -1.55874 2.12132 -2.12132 
C 1.55874 -2.683901 0.795609 -3 0 -3 
C -0.795609 -3 -1.55874 -2.683901 -2.12132 -2.12132 
C -2.683901 -1.55874 -3 -0.795609 -3 0 
C -3 0.795609 -2.683901 1.55874 -2.12132 2.12132 
C -1.55874 2.683901 -0.795609 3 0 3 
z
" style="stroke: #bcbd22"/>
    </defs>
    <g clip-path="url(#pb3f0c151e4)">
     <use xlink:href="#mfb85be1aef" x="321.2625" y="189.27" style="fill: #bcbd22; stroke: #bcbd22"/>
    </g>
   </g>
   <g id="PathCollection_10">
    <defs>
     <path id="m9f3107c775" d="M 0 3 
C 0.795609 3 1.55874 2.683901 2.12132 2.12132 
C 2.683901 1.55874 3 0.795609 3 0 
C 3 -0.795609 2.683901 -1.55874 2.12132 -2.12132 
C 1.55874 -2.683901 0.795609 -3 0 -3 
C -0.795609 -3 -1.55874 -2.683901 -2.12132 -2.12132 
C -2.683901 -1.55874 -3 -0.795609 -3 0 
C -3 0.795609 -2.683901 1.55874 -2.12132 2.12132 
C -1.55874 2.683901 -0.795609 3 0 3 
z
" style="stroke: #17becf"/>
    </defs>
    <g clip-path="url(#pb3f0c151e4)">
     <use xlink:href="#m9f3107c775" x="321.2625" y="189.27" style="fill: #17becf; stroke: #17becf"/>
    </g>
   </g>
   <g id="PathCollection_11">
    <g clip-path="url(#pb3f0c151e4)">
     <use xlink:href="#m5565d93b58" x="321.2625" y="189.27" style="fill: #1f77b4; stroke: #1f77b4"/>
    </g>
   </g>
   <g id="PathCollection_12">
    <g clip-path="url(#pb3f0c151e4)">
     <use xlink:href="#m989199077c" x="321.2625" y="189.27" style="fill: #ff7f0e; stroke: #ff7f0e"/>
    </g>
   </g>
   <g id="PathCollection_13">
    <g clip-path="url(#pb3f0c151e4)">
     <use xlink:href="#me4203c1b4e" x="321.2625" y="189.27" style="fill: #2ca02c; stroke: #2ca02c"/>
    </g>
   </g>
   <g id="PathCollection_14">
    <g clip-path="url(#pb3f0c151e4)">
     <use xlink:href="#m0cb5b2e9a5" x="321.2625" y="189.27" style="fill: #d62728; stroke: #d62728"/>
    </g>
   </g>
   <g id="PathCollection_15">
    <g clip-path="url(#pb3f0c151e4)">
     <use xlink:href="#m3aa5482cba" x="321.2625" y="189.27" style="fill: #9467bd; stroke: #9467bd"/>
    </g>
   </g>
   <g id="PathCollection_16">
    <g clip-path="url(#pb3f0c151e4)">
     <use xlink:href="#m94ae95734b" x="321.2625" y="189.27" style="fill: #8c564b; stroke: #8c564b"/>
    </g>
   </g>
   <g id="PathCollection_17">
    <g clip-path="url(#pb3f0c151e4)">
     <use xlink:href="#m5dbbfd4933" x="321.2625" y="189.27" style="fill: #e377c2; stroke: #e377c2"/>
    </g>
   </g>
   <g id="PathCollection_18">
    <g clip-path="url(#pb3f0c151e4)">
     <use xlink:href="#mcaae377ee5" x="321.2625" y="189.27" style="fill: #7f7f7f; stroke: #7f7f7f"/>
    </g>
   </g>
   <g id="PathCollection_19">
    <g clip-path="url(#pb3f0c151e4)">
     <use xlink:href="#mfb85be1aef" x="321.2625" y="189.27" style="fill: #bcbd22; stroke: #bcbd22"/>
    </g>
   </g>
   <g id="PathCollection_20">
    <g clip-path="url(#pb3f0c151e4)">
     <use xlink:href="#m9f3107c775" x="321.2625" y="189.27" style="fill: #17becf; stroke: #17becf"/>
    </g>
   </g>
   <g id="PathCollection_21">
    <g clip-path="url(#pb3f0c151e4)">
     <use xlink:href="#m5565d93b58" x="321.2625" y="189.27" style="fill: #1f77b4; stroke: #1f77b4"/>
    </g>
   </g>
   <g id="PathCollection_22">
    <g clip-path="url(#pb3f0c151e4)">
     <use xlink:href="#m989199077c" x="321.2625" y="189.27" style="fill: #ff7f0e; stroke: #ff7f0e"/>
    </g>
   </g>
   <g id="PathCollection_23">
    <g clip-path="url(#pb3f0c151e4)">
     <use xlink:href="#me4203c1b4e" x="321.2625" y="189.27" style="fill: #2ca02c; stroke: #2ca02c"/>
    </g>
   </g>
   <g id="PathCollection_24">
    <g clip-path="url(#pb3f0c151e4)">
     <use xlink:href="#m0cb5b2e9a5" x="321.2625" y="189.27" style="fill: #d62728; stroke: #d62728"/>
    </g>
   </g>
   <g id="PathCollection_25">
    <g clip-path="url(#pb3f0c151e4)">
     <use xlink:href="#m3aa5482cba" x="321.2625" y="189.27" style="fill: #9467bd; stroke: #9467bd"/>
    </g>
   </g>
   <g id="PathCollection_26">
    <g clip-path="url(#pb3f0c151e4)">
     <use xlink:href="#m94ae95734b" x="321.2625" y="189.27" style="fill: #8c564b; stroke: #8c564b"/>
    </g>
   </g>
   <g id="PathCollection_27">
    <g clip-path="url(#pb3f0c151e4)">
     <use xlink:href="#m5dbbfd4933" x="321.2625" y="189.27" style="fill: #e377c2; stroke: #e377c2"/>
    </g>
   </g>
   <g id="PathCollection_28">
    <g clip-path="url(#pb3f0c151e4)">
     <use xlink:href="#mcaae377ee5" x="321.2625" y="189.27" style="fill: #7f7f7f; stroke: #7f7f7f"/>
    </g>
   </g>
   <g id="PathCollection_29">
    <g clip-path="url(#pb3f0c151e4)">
     <use xlink:href="#mfb85be1aef" x="321.2625" y="189.27" style="fill: #bcbd22; stroke: #bcbd22"/>
    </g>
   </g>
   <g id="PathCollection_30">
    <g clip-path="url(#pb3f0c151e4)">
     <use xlink:href="#m9f3107c775" x="321.2625" y="189.27" style="fill: #17becf; stroke: #17becf"/>
    </g>
   </g>
   <g id="PathCollection_31">
    <g clip-path="url(#pb3f0c151e4)">
     <use xlink:href="#m5565d93b58" x="321.2625" y="189.27" style="fill: #1f77b4; stroke: #1f77b4"/>
    </g>
   </g>
   <g id="PathCollection_32">
    <g clip-path="url(#pb3f0c151e4)">
     <use xlink:href="#m989199077c" x="321.2625" y="189.27" style="fill: #ff7f0e; stroke: #ff7f0e"/>
    </g>
   </g>
   <g id="PathCollection_33">
    <g clip-path="url(#pb3f0c151e4)">
     <use xlink:href="#me4203c1b4e" x="321.2625" y="189.27" style="fill: #2ca02c; stroke: #2ca02c"/>
    </g>
   </g>
   <g id="PathCollection_34">
    <g clip-path="url(#pb3f0c151e4)">
     <use xlink:href="#m0cb5b2e9a5" x="321.2625" y="189.27" style="fill: #d62728; stroke: #d62728"/>
    </g>
   </g>
   <g id="PathCollection_35">
    <g clip-path="url(#pb3f0c151e4)">
     <use xlink:href="#m3aa5482cba" x="321.2625" y="189.27" style="fill: #9467bd; stroke: #9467bd"/>
    </g>
   </g>
   <g id="PathCollection_36">
    <g clip-path="url(#pb3f0c151e4)">
     <use xlink:href="#m94ae95734b" x="321.2625" y="189.27" style="fill: #8c564b; stroke: #8c564b"/>
    </g>
   </g>
   <g id="PathCollection_37">
    <g clip-path="url(#pb3f0c151e4)">
     <use xlink:href="#m5dbbfd4933" x="321.2625" y="189.27" style="fill: #e377c2; stroke: #e377c2"/>
    </g>
   </g>
   <g id="PathCollection_38">
    <g clip-path="url(#pb3f0c151e4)">
     <use xlink:href="#mcaae377ee5" x="321.2625" y="189.27" style="fill: #7f7f7f; stroke: #7f7f7f"/>
    </g>
   </g>
   <g id="PathCollection_39">
    <g clip-path="url(#pb3f0c151e4)">
     <use xlink:href="#mfb85be1aef" x="321.2625" y="189.27" style="fill: #bcbd22; stroke: #bcbd22"/>
    </g>
   </g>
   <g id="PathCollection_40">
    <g clip-path="url(#pb3f0c151e4)">
     <use xlink:href="#m9f3107c775" x="321.2625" y="189.27" style="fill: #17becf; stroke: #17becf"/>
    </g>
   </g>
   <g id="PathCollection_41">
    <g clip-path="url(#pb3f0c151e4)">
     <use xlink:href="#m5565d93b58" x="321.2625" y="189.27" style="fill: #1f77b4; stroke: #1f77b4"/>
    </g>
   </g>
   <g id="PathCollection_42">
    <g clip-path="url(#pb3f0c151e4)">
     <use xlink:href="#m989199077c" x="321.2625" y="189.27" style="fill: #ff7f0e; stroke: #ff7f0e"/>
    </g>
   </g>
   <g id="PathCollection_43">
    <g clip-path="url(#pb3f0c151e4)">
     <use xlink:href="#me4203c1b4e" x="321.2625" y="189.27" style="fill: #2ca02c; stroke: #2ca02c"/>
    </g>
   </g>
   <g id="PathCollection_44">
    <g clip-path="url(#pb3f0c151e4)">
     <use xlink:href="#m0cb5b2e9a5" x="321.2625" y="189.27" style="fill: #d62728; stroke: #d62728"/>
    </g>
   </g>
   <g id="PathCollection_45">
    <g clip-path="url(#pb3f0c151e4)">
     <use xlink:href="#m3aa5482cba" x="321.2625" y="189.27" style="fill: #9467bd; stroke: #9467bd"/>
    </g>
   </g>
   <g id="PathCollection_46">
    <g clip-path="url(#pb3f0c151e4)">
     <use xlink:href="#m94ae95734b" x="321.2625" y="189.27" style="fill: #8c564b; stroke: #8c564b"/>
    </g>
   </g>
   <g id="PathCollection_47">
    <g clip-path="url(#pb3f0c151e4)">
     <use xlink:href="#m5dbbfd4933" x="321.2625" y="189.27" style="fill: #e377c2; stroke: #e377c2"/>
    </g>
   </g>
   <g id="PathCollection_48">
    <g clip-path="url(#pb3f0c151e4)">
     <use xlink:href="#mcaae377ee5" x="321.2625" y="189.27" style="fill: #7f7f7f; stroke: #7f7f7f"/>
    </g>
   </g>
   <g id="PathCollection_49">
    <g clip-path="url(#pb3f0c151e4)">
     <use xlink:href="#mfb85be1aef" x="321.2625" y="189.27" style="fill: #bcbd22; stroke: #bcbd22"/>
    </g>
   </g>
   <g id="PathCollection_50">
    <g clip-path="url(#pb3f0c151e4)">
     <use xlink:href="#m9f3107c775" x="321.2625" y="189.27" style="fill: #17becf; stroke: #17becf"/>
    </g>
   </g>
   <g id="PathCollection_51">
    <g clip-path="url(#pb3f0c151e4)">
     <use xlink:href="#m5565d93b58" x="321.2625" y="189.27" style="fill: #1f77b4; stroke: #1f77b4"/>
    </g>
   </g>
   <g id="PathCollection_52">
    <g clip-path="url(#pb3f0c151e4)">
     <use xlink:href="#m989199077c" x="321.2625" y="189.27" style="fill: #ff7f0e; stroke: #ff7f0e"/>
    </g>
   </g>
   <g id="PathCollection_53">
    <g clip-path="url(#pb3f0c151e4)">
     <use xlink:href="#me4203c1b4e" x="321.2625" y="189.27" style="fill: #2ca02c; stroke: #2ca02c"/>
    </g>
   </g>
   <g id="PathCollection_54">
    <g clip-path="url(#pb3f0c151e4)">
     <use xlink:href="#m0cb5b2e9a5" x="321.2625" y="189.27" style="fill: #d62728; stroke: #d62728"/>
    </g>
   </g>
   <g id="PathCollection_55">
    <g clip-path="url(#pb3f0c151e4)">
     <use xlink:href="#m3aa5482cba" x="321.2625" y="189.27" style="fill: #9467bd; stroke: #9467bd"/>
    </g>
   </g>
   <g id="PathCollection_56">
    <g clip-path="url(#pb3f0c151e4)">
     <use xlink:href="#m94ae95734b" x="321.2625" y="189.27" style="fill: #8c564b; stroke: #8c564b"/>
    </g>
   </g>
   <g id="PathCollection_57">
    <g clip-path="url(#pb3f0c151e4)">
     <use xlink:href="#m5dbbfd4933" x="321.2625" y="189.27" style="fill: #e377c2; stroke: #e377c2"/>
    </g>
   </g>
   <g id="PathCollection_58">
    <g clip-path="url(#pb3f0c151e4)">
     <use xlink:href="#mcaae377ee5" x="321.2625" y="189.27" style="fill: #7f7f7f; stroke: #7f7f7f"/>
    </g>
   </g>
   <g id="PathCollection_59">
    <g clip-path="url(#pb3f0c151e4)">
     <use xlink:href="#mfb85be1aef" x="321.2625" y="189.27" style="fill: #bcbd22; stroke: #bcbd22"/>
    </g>
   </g>
   <g id="PathCollection_60">
    <g clip-path="url(#pb3f0c151e4)">
     <use xlink:href="#m9f3107c775" x="321.2625" y="189.27" style="fill: #17becf; stroke: #17becf"/>
    </g>
   </g>
   <g id="PathCollection_61">
    <g clip-path="url(#pb3f0c151e4)">
     <use xlink:href="#m5565d93b58" x="321.2625" y="189.27" style="fill: #1f77b4; stroke: #1f77b4"/>
    </g>
   </g>
   <g id="PathCollection_62">
    <g clip-path="url(#pb3f0c151e4)">
     <use xlink:href="#m989199077c" x="321.2625" y="189.27" style="fill: #ff7f0e; stroke: #ff7f0e"/>
    </g>
   </g>
   <g id="PathCollection_63">
    <g clip-path="url(#pb3f0c151e4)">
     <use xlink:href="#me4203c1b4e" x="321.2625" y="189.27" style="fill: #2ca02c; stroke: #2ca02c"/>
    </g>
   </g>
   <g id="PathCollection_64">
    <g clip-path="url(#pb3f0c151e4)">
     <use xlink:href="#m0cb5b2e9a5" x="321.2625" y="189.27" style="fill: #d62728; stroke: #d62728"/>
    </g>
   </g>
   <g id="PathCollection_65">
    <g clip-path="url(#pb3f0c151e4)">
     <use xlink:href="#m3aa5482cba" x="321.2625" y="189.27" style="fill: #9467bd; stroke: #9467bd"/>
    </g>
   </g>
   <g id="PathCollection_66">
    <g clip-path="url(#pb3f0c151e4)">
     <use xlink:href="#m94ae95734b" x="321.2625" y="189.27" style="fill: #8c564b; stroke: #8c564b"/>
    </g>
   </g>
   <g id="PathCollection_67">
    <g clip-path="url(#pb3f0c151e4)">
     <use xlink:href="#m5dbbfd4933" x="321.2625" y="189.27" style="fill: #e377c2; stroke: #e377c2"/>
    </g>
   </g>
   <g id="PathCollection_68">
    <g clip-path="url(#pb3f0c151e4)">
     <use xlink:href="#mcaae377ee5" x="321.2625" y="189.27" style="fill: #7f7f7f; stroke: #7f7f7f"/>
    </g>
   </g>
   <g id="PathCollection_69">
    <g clip-path="url(#pb3f0c151e4)">
     <use xlink:href="#mfb85be1aef" x="321.2625" y="189.27" style="fill: #bcbd22; stroke: #bcbd22"/>
    </g>
   </g>
   <g id="PathCollection_70">
    <g clip-path="url(#pb3f0c151e4)">
     <use xlink:href="#m9f3107c775" x="321.2625" y="189.27" style="fill: #17becf; stroke: #17becf"/>
    </g>
   </g>
   <g id="PathCollection_71">
    <g clip-path="url(#pb3f0c151e4)">
     <use xlink:href="#m5565d93b58" x="321.2625" y="189.27" style="fill: #1f77b4; stroke: #1f77b4"/>
    </g>
   </g>
   <g id="PathCollection_72">
    <g clip-path="url(#pb3f0c151e4)">
     <use xlink:href="#m989199077c" x="321.2625" y="189.27" style="fill: #ff7f0e; stroke: #ff7f0e"/>
    </g>
   </g>
   <g id="PathCollection_73">
    <g clip-path="url(#pb3f0c151e4)">
     <use xlink:href="#me4203c1b4e" x="321.2625" y="189.27" style="fill: #2ca02c; stroke: #2ca02c"/>
    </g>
   </g>
   <g id="PathCollection_74">
    <g clip-path="url(#pb3f0c151e4)">
     <use xlink:href="#m0cb5b2e9a5" x="321.2625" y="189.27" style="fill: #d62728; stroke: #d62728"/>
    </g>
   </g>
   <g id="PathCollection_75">
    <g clip-path="url(#pb3f0c151e4)">
     <use xlink:href="#m3aa5482cba" x="321.2625" y="189.27" style="fill: #9467bd; stroke: #9467bd"/>
    </g>
   </g>
   <g id="PathCollection_76">
    <g clip-path="url(#pb3f0c151e4)">
     <use xlink:href="#m94ae95734b" x="321.2625" y="189.27" style="fill: #8c564b; stroke: #8c564b"/>
    </g>
   </g>
   <g id="PathCollection_77">
    <g clip-path="url(#pb3f0c151e4)">
     <use xlink:href="#m5dbbfd4933" x="321.2625" y="189.27" style="fill: #e377c2; stroke: #e377c2"/>
    </g>
   </g>
   <g id="PathCollection_78">
    <g clip-path="url(#pb3f0c151e4)">
     <use xlink:href="#mcaae377ee5" x="321.2625" y="189.27" style="fill: #7f7f7f; stroke: #7f7f7f"/>
    </g>
   </g>
   <g id="PathCollection_79">
    <g clip-path="url(#pb3f0c151e4)">
     <use xlink:href="#mfb85be1aef" x="321.2625" y="189.27" style="fill: #bcbd22; stroke: #bcbd22"/>
    </g>
   </g>
   <g id="PathCollection_80">
    <g clip-path="url(#pb3f0c151e4)">
     <use xlink:href="#m9f3107c775" x="321.2625" y="189.27" style="fill: #17becf; stroke: #17becf"/>
    </g>
   </g>
   <g id="PathCollection_81">
    <g clip-path="url(#pb3f0c151e4)">
     <use xlink:href="#m5565d93b58" x="321.2625" y="189.27" style="fill: #1f77b4; stroke: #1f77b4"/>
    </g>
   </g>
   <g id="PathCollection_82">
    <g clip-path="url(#pb3f0c151e4)">
     <use xlink:href="#m989199077c" x="321.2625" y="189.27" style="fill: #ff7f0e; stroke: #ff7f0e"/>
    </g>
   </g>
   <g id="PathCollection_83">
    <g clip-path="url(#pb3f0c151e4)">
     <use xlink:href="#me4203c1b4e" x="321.2625" y="189.27" style="fill: #2ca02c; stroke: #2ca02c"/>
    </g>
   </g>
   <g id="PathCollection_84">
    <g clip-path="url(#pb3f0c151e4)">
     <use xlink:href="#m0cb5b2e9a5" x="321.2625" y="189.27" style="fill: #d62728; stroke: #d62728"/>
    </g>
   </g>
   <g id="PathCollection_85">
    <g clip-path="url(#pb3f0c151e4)">
     <use xlink:href="#m3aa5482cba" x="321.2625" y="189.27" style="fill: #9467bd; stroke: #9467bd"/>
    </g>
   </g>
   <g id="PathCollection_86">
    <g clip-path="url(#pb3f0c151e4)">
     <use xlink:href="#m94ae95734b" x="321.2625" y="189.27" style="fill: #8c564b; stroke: #8c564b"/>
    </g>
   </g>
   <g id="PathCollection_87">
    <g clip-path="url(#pb3f0c151e4)">
     <use xlink:href="#m5dbbfd4933" x="321.2625" y="189.27" style="fill: #e377c2; stroke: #e377c2"/>
    </g>
   </g>
   <g id="PathCollection_88">
    <g clip-path="url(#pb3f0c151e4)">
     <use xlink:href="#mcaae377ee5" x="321.2625" y="189.27" style="fill: #7f7f7f; stroke: #7f7f7f"/>
    </g>
   </g>
   <g id="PathCollection_89">
    <g clip-path="url(#pb3f0c151e4)">
     <use xlink:href="#mfb85be1aef" x="321.2625" y="189.27" style="fill: #bcbd22; stroke: #bcbd22"/>
    </g>
   </g>
   <g id="PathCollection_90">
    <g clip-path="url(#pb3f0c151e4)">
     <use xlink:href="#m9f3107c775" x="321.2625" y="189.27" style="fill: #17becf; stroke: #17becf"/>
    </g>
   </g>
   <g id="PathCollection_91">
    <g clip-path="url(#pb3f0c151e4)">
     <use xlink:href="#m5565d93b58" x="321.2625" y="189.27" style="fill: #1f77b4; stroke: #1f77b4"/>
    </g>
   </g>
   <g id="PathCollection_92">
    <g clip-path="url(#pb3f0c151e4)">
     <use xlink:href="#m989199077c" x="321.2625" y="189.27" style="fill: #ff7f0e; stroke: #ff7f0e"/>
    </g>
   </g>
   <g id="PathCollection_93">
    <g clip-path="url(#pb3f0c151e4)">
     <use xlink:href="#me4203c1b4e" x="321.2625" y="189.27" style="fill: #2ca02c; stroke: #2ca02c"/>
    </g>
   </g>
   <g id="PathCollection_94">
    <g clip-path="url(#pb3f0c151e4)">
     <use xlink:href="#m0cb5b2e9a5" x="321.2625" y="189.27" style="fill: #d62728; stroke: #d62728"/>
    </g>
   </g>
   <g id="PathCollection_95">
    <g clip-path="url(#pb3f0c151e4)">
     <use xlink:href="#m3aa5482cba" x="321.2625" y="189.27" style="fill: #9467bd; stroke: #9467bd"/>
    </g>
   </g>
   <g id="PathCollection_96">
    <g clip-path="url(#pb3f0c151e4)">
     <use xlink:href="#m94ae95734b" x="321.2625" y="189.27" style="fill: #8c564b; stroke: #8c564b"/>
    </g>
   </g>
   <g id="PathCollection_97">
    <g clip-path="url(#pb3f0c151e4)">
     <use xlink:href="#m5dbbfd4933" x="321.2625" y="189.27" style="fill: #e377c2; stroke: #e377c2"/>
    </g>
   </g>
   <g id="PathCollection_98">
    <g clip-path="url(#pb3f0c151e4)">
     <use xlink:href="#mcaae377ee5" x="321.2625" y="189.27" style="fill: #7f7f7f; stroke: #7f7f7f"/>
    </g>
   </g>
   <g id="PathCollection_99">
    <g clip-path="url(#pb3f0c151e4)">
     <use xlink:href="#mfb85be1aef" x="321.2625" y="189.27" style="fill: #bcbd22; stroke: #bcbd22"/>
    </g>
   </g>
   <g id="PathCollection_100">
    <g clip-path="url(#pb3f0c151e4)">
     <use xlink:href="#m9f3107c775" x="321.2625" y="189.27" style="fill: #17becf; stroke: #17becf"/>
    </g>
   </g>
   <g id="matplotlib.axis_1">
    <g id="xtick_1">
     <g id="line2d_1">
      <defs>
       <path id="m5c9024c471" d="M 0 0 
L 0 3.5 
" style="stroke: #000000; stroke-width: 0.8"/>
      </defs>
      <g>
       <use xlink:href="#m5c9024c471" x="100.70914" y="355.59" style="stroke: #000000; stroke-width: 0.8"/>
      </g>
     </g>
     <g id="text_1">
      <!-- 88 -->
      <g transform="translate(95.70914 369.465) scale(0.1 -0.1)">
       <defs>
        <path id="SimHei-38" d="M 175 1375 
Q 175 1675 325 1962 
Q 475 2250 825 2425 
Q 525 2600 425 2812 
Q 325 3025 312 3300 
Q 300 3575 387 3775 
Q 475 3975 650 4150 
Q 825 4325 1037 4387 
Q 1250 4450 1500 4450 
Q 1750 4450 1950 4400 
Q 2150 4350 2375 4187 
Q 2600 4025 2700 3725 
Q 2800 3425 2687 3025 
Q 2575 2625 2100 2400 
Q 2525 2275 2700 2012 
Q 2875 1750 2875 1375 
Q 2875 1000 2762 775 
Q 2650 550 2512 400 
Q 2375 250 2137 162 
Q 1900 75 1537 75 
Q 1175 75 912 162 
Q 650 250 475 425 
Q 300 600 237 837 
Q 175 1075 175 1375 
z
M 687 1400 
Q 675 1100 787 875 
Q 900 650 1200 587 
Q 1500 525 1825 600 
Q 2150 675 2275 950 
Q 2400 1225 2362 1500 
Q 2325 1775 2050 1962 
Q 1775 2150 1450 2125 
Q 1125 2100 912 1900 
Q 700 1700 687 1400 
z
M 775 3350 
Q 775 3100 950 2875 
Q 1125 2650 1500 2650 
Q 1875 2650 2062 2875 
Q 2250 3100 2237 3412 
Q 2225 3725 2012 3875 
Q 1800 4025 1437 4000 
Q 1075 3975 925 3787 
Q 775 3600 775 3350 
z
" transform="scale(0.015625)"/>
       </defs>
       <use xlink:href="#SimHei-38"/>
       <use xlink:href="#SimHei-38" x="50"/>
      </g>
     </g>
    </g>
    <g id="xtick_2">
     <g id="line2d_2">
      <g>
       <use xlink:href="#m5c9024c471" x="210.98582" y="355.59" style="stroke: #000000; stroke-width: 0.8"/>
      </g>
     </g>
     <g id="text_2">
      <!-- 90 -->
      <g transform="translate(205.98582 369.465) scale(0.1 -0.1)">
       <defs>
        <path id="SimHei-39" d="M 800 75 
Q 1350 1000 1700 1750 
Q 1075 1650 662 1912 
Q 250 2175 162 2625 
Q 75 3075 175 3437 
Q 275 3800 487 4037 
Q 700 4275 1000 4375 
Q 1300 4475 1537 4475 
Q 1775 4475 2025 4375 
Q 2275 4275 2475 4075 
Q 2675 3875 2750 3662 
Q 2825 3450 2825 3112 
Q 2825 2775 2575 2250 
Q 2325 1725 1350 75 
L 800 75 
z
M 662 2875 
Q 700 2550 937 2337 
Q 1175 2125 1450 2150 
Q 1725 2175 1887 2300 
Q 2050 2425 2200 2725 
Q 2300 3100 2250 3362 
Q 2200 3625 1987 3800 
Q 1775 3975 1525 3975 
Q 1375 4000 1137 3900 
Q 900 3800 762 3500 
Q 625 3200 662 2875 
z
" transform="scale(0.015625)"/>
        <path id="SimHei-30" d="M 225 2537 
Q 250 3200 412 3587 
Q 575 3975 875 4225 
Q 1175 4475 1612 4475 
Q 2050 4475 2375 4112 
Q 2700 3750 2800 3200 
Q 2900 2650 2862 1937 
Q 2825 1225 2612 775 
Q 2400 325 1975 150 
Q 1550 -25 1125 187 
Q 700 400 525 750 
Q 350 1100 275 1487 
Q 200 1875 225 2537 
z
M 750 2687 
Q 675 2000 800 1462 
Q 925 925 1212 700 
Q 1500 475 1800 612 
Q 2100 750 2237 1162 
Q 2375 1575 2375 2062 
Q 2375 2550 2337 2950 
Q 2300 3350 2112 3675 
Q 1925 4000 1612 4012 
Q 1300 4025 1062 3700 
Q 825 3375 750 2687 
z
" transform="scale(0.015625)"/>
       </defs>
       <use xlink:href="#SimHei-39"/>
       <use xlink:href="#SimHei-30" x="50"/>
      </g>
     </g>
    </g>
    <g id="xtick_3">
     <g id="line2d_3">
      <g>
       <use xlink:href="#m5c9024c471" x="321.2625" y="355.59" style="stroke: #000000; stroke-width: 0.8"/>
      </g>
     </g>
     <g id="text_3">
      <!-- 92 -->
      <g transform="translate(316.2625 369.465) scale(0.1 -0.1)">
       <defs>
        <path id="SimHei-32" d="M 300 250 
Q 325 625 650 925 
Q 975 1225 1475 1862 
Q 1975 2500 2125 2850 
Q 2275 3200 2237 3450 
Q 2200 3700 2000 3862 
Q 1800 4025 1537 4000 
Q 1275 3975 1037 3800 
Q 800 3625 675 3275 
L 200 3350 
Q 400 3925 712 4187 
Q 1025 4450 1450 4475 
Q 1700 4500 1900 4462 
Q 2100 4425 2312 4287 
Q 2525 4150 2662 3875 
Q 2800 3600 2762 3212 
Q 2725 2825 2375 2287 
Q 2025 1750 1025 600 
L 2825 600 
L 2825 150 
L 300 150 
L 300 250 
z
" transform="scale(0.015625)"/>
       </defs>
       <use xlink:href="#SimHei-39"/>
       <use xlink:href="#SimHei-32" x="50"/>
      </g>
     </g>
    </g>
    <g id="xtick_4">
     <g id="line2d_4">
      <g>
       <use xlink:href="#m5c9024c471" x="431.53918" y="355.59" style="stroke: #000000; stroke-width: 0.8"/>
      </g>
     </g>
     <g id="text_4">
      <!-- 94 -->
      <g transform="translate(426.53918 369.465) scale(0.1 -0.1)">
       <defs>
        <path id="SimHei-34" d="M 2000 1100 
L 75 1100 
L 75 1525 
L 2100 4450 
L 2475 4450 
L 2475 1525 
L 3075 1525 
L 3075 1100 
L 2475 1100 
L 2475 150 
L 2000 150 
L 2000 1100 
z
M 2000 1525 
L 2000 3500 
L 600 1525 
L 2000 1525 
z
" transform="scale(0.015625)"/>
       </defs>
       <use xlink:href="#SimHei-39"/>
       <use xlink:href="#SimHei-34" x="50"/>
      </g>
     </g>
    </g>
    <g id="xtick_5">
     <g id="line2d_5">
      <g>
       <use xlink:href="#m5c9024c471" x="541.81586" y="355.59" style="stroke: #000000; stroke-width: 0.8"/>
      </g>
     </g>
     <g id="text_5">
      <!-- 96 -->
      <g transform="translate(536.81586 369.465) scale(0.1 -0.1)">
       <defs>
        <path id="SimHei-36" d="M 250 1612 
Q 275 1975 387 2225 
Q 500 2475 725 2850 
L 1750 4450 
L 2325 4450 
L 1275 2800 
Q 1950 2975 2350 2750 
Q 2750 2525 2887 2237 
Q 3025 1950 3037 1612 
Q 3050 1275 2937 950 
Q 2825 625 2537 362 
Q 2250 100 1737 75 
Q 1225 50 862 262 
Q 500 475 362 862 
Q 225 1250 250 1612 
z
M 1025 787 
Q 1250 550 1625 525 
Q 2000 500 2250 775 
Q 2500 1050 2500 1575 
Q 2500 2100 2187 2300 
Q 1875 2500 1487 2450 
Q 1100 2400 925 2075 
Q 750 1750 775 1387 
Q 800 1025 1025 787 
z
" transform="scale(0.015625)"/>
       </defs>
       <use xlink:href="#SimHei-39"/>
       <use xlink:href="#SimHei-36" x="50"/>
      </g>
     </g>
    </g>
    <g id="text_6">
     <!-- 靠桥率 -->
     <g transform="translate(306.2625 382.644688) scale(0.1 -0.1)">
      <defs>
       <path id="SimHei-9760" d="M 5150 3150 
Q 5125 2950 5125 2600 
Q 5125 2250 5150 2025 
L 4000 2025 
L 4000 1775 
L 5100 1775 
Q 5425 1775 5850 1800 
L 5850 1400 
Q 5475 1425 5100 1425 
L 4000 1425 
L 4000 1025 
L 5000 1025 
Q 5325 1025 5625 1050 
L 5625 625 
Q 5325 650 5000 650 
L 4000 650 
L 4000 275 
L 5425 275 
Q 5650 275 5975 300 
L 5975 -125 
Q 5625 -100 5425 -100 
L 4000 -100 
Q 4000 -375 4025 -600 
L 3575 -600 
L 3575 2025 
L 2875 2025 
L 2875 -600 
L 2425 -600 
Q 2450 -300 2450 -100 
L 1200 -100 
Q 800 -100 450 -125 
L 450 300 
Q 800 275 1200 275 
L 2450 275 
L 2450 650 
L 1525 650 
Q 1175 650 775 625 
L 775 1050 
Q 1150 1025 1525 1025 
L 2450 1025 
L 2450 1425 
L 1375 1425 
Q 975 1425 600 1400 
L 600 1800 
Q 950 1775 1425 1775 
L 2450 1775 
L 2450 2025 
L 1300 2025 
Q 1325 2250 1325 2600 
Q 1325 2950 1300 3150 
L 5150 3150 
z
M 2000 4900 
Q 1850 4750 1750 4625 
L 3025 4625 
Q 3025 4800 3000 5075 
L 3500 5075 
Q 3475 4800 3475 4625 
L 4650 4625 
Q 4975 4625 5325 4650 
L 5325 4225 
Q 4975 4250 4650 4250 
L 3475 4250 
L 3475 3800 
L 4975 3800 
Q 5500 3800 5950 3825 
L 5950 3425 
Q 5500 3450 4975 3450 
L 1350 3450 
Q 825 3450 375 3425 
L 375 3825 
Q 825 3800 1350 3800 
L 3025 3800 
L 3025 4250 
L 1500 4250 
Q 1400 4125 1200 3900 
Q 1050 4050 850 4150 
Q 1150 4450 1300 4675 
Q 1450 4900 1550 5125 
Q 1825 5000 2000 4900 
z
M 4700 2400 
L 4700 2775 
L 1750 2775 
L 1750 2400 
L 4700 2400 
z
" transform="scale(0.015625)"/>
       <path id="SimHei-6865" d="M 5550 4725 
Q 5250 4750 4300 4600 
Q 4250 4225 4175 3800 
L 5075 3800 
Q 5375 3800 5800 3825 
L 5800 3400 
Q 5375 3425 4775 3425 
Q 4850 2975 5187 2612 
Q 5525 2250 6200 2025 
Q 5950 1875 5800 1575 
Q 5425 1775 5100 2075 
Q 5050 1800 5050 1425 
L 5050 275 
Q 5050 -75 5075 -525 
L 4600 -525 
Q 4625 -225 4625 275 
L 4625 1425 
Q 4625 1800 4600 2100 
L 5075 2100 
Q 4500 2650 4350 3425 
L 4075 3425 
Q 3800 2625 3425 2225 
Q 3800 2175 3975 2175 
Q 3900 1900 3850 1337 
Q 3800 775 3637 312 
Q 3475 -150 3050 -550 
Q 2800 -325 2500 -250 
Q 3175 200 3312 1025 
Q 3450 1850 3400 2175 
Q 3025 1750 2625 1450 
Q 2500 1625 2175 1800 
Q 2850 2175 3162 2600 
Q 3475 3025 3625 3425 
Q 3075 3425 2650 3400 
L 2650 3825 
Q 3100 3800 3750 3800 
Q 3800 4250 3825 4550 
Q 3175 4475 2825 4450 
Q 2750 4675 2625 4850 
Q 2875 4850 3725 4937 
Q 4575 5025 5275 5250 
Q 5375 5000 5550 4725 
z
M 2050 2050 
Q 1900 2450 1675 2850 
L 1675 400 
Q 1675 -75 1700 -575 
L 1225 -575 
Q 1250 -75 1250 400 
L 1250 2425 
Q 1075 1725 600 1000 
Q 450 1225 250 1375 
Q 650 1950 850 2437 
Q 1050 2925 1125 3425 
Q 775 3425 450 3375 
L 450 3825 
Q 800 3800 1250 3800 
L 1250 4425 
Q 1250 4800 1225 5175 
L 1725 5175 
Q 1675 4875 1675 4425 
L 1675 3800 
Q 2000 3800 2325 3825 
L 2325 3400 
Q 2000 3425 1675 3425 
L 1675 3000 
Q 1850 3100 1950 3175 
Q 2200 2725 2450 2250 
Q 2250 2200 2050 2050 
z
" transform="scale(0.015625)"/>
       <path id="SimHei-7387" d="M 3325 5150 
Q 3425 4900 3550 4525 
L 4800 4525 
Q 5250 4525 5800 4550 
L 5800 4125 
Q 5250 4175 4775 4175 
L 2800 4175 
Q 2975 4050 3300 3900 
Q 3075 3750 2875 3537 
Q 2675 3325 2475 3125 
L 3275 3125 
Q 3575 3425 3775 3775 
Q 4000 3600 4275 3425 
Q 3950 3250 3600 2875 
Q 3250 2500 2625 2000 
L 3850 2100 
Q 3725 2250 3600 2425 
Q 3750 2475 4000 2650 
Q 4250 2350 4700 1700 
Q 4475 1625 4225 1450 
Q 4175 1600 4025 1775 
Q 3700 1750 3425 1750 
L 3425 1050 
L 5150 1050 
Q 5675 1050 6100 1075 
L 6100 650 
Q 5700 675 5125 675 
L 3425 675 
L 3425 175 
Q 3425 -300 3450 -625 
L 2900 -625 
Q 2925 -300 2925 175 
L 2925 675 
L 1325 675 
Q 825 675 325 650 
L 325 1075 
Q 825 1050 1350 1050 
L 2925 1050 
L 2925 1700 
Q 2700 1675 2475 1637 
Q 2250 1600 2025 1525 
Q 1950 1775 1850 2000 
Q 2075 2025 2325 2200 
Q 2575 2375 2975 2800 
Q 2300 2725 2025 2625 
Q 1975 2875 1850 3175 
Q 2075 3175 2325 3487 
Q 2575 3800 2750 4175 
L 1700 4175 
Q 1150 4175 650 4125 
L 650 4550 
Q 1150 4525 1550 4525 
L 2975 4525 
Q 2900 4825 2800 5025 
Q 3025 5075 3325 5150 
z
M 1625 2575 
Q 1725 2400 1825 2200 
Q 1575 2050 1325 1862 
Q 1075 1675 800 1425 
Q 625 1675 475 1875 
Q 800 2025 1100 2212 
Q 1400 2400 1625 2575 
z
M 4850 2650 
Q 5125 2475 5337 2337 
Q 5550 2200 5875 1950 
Q 5675 1800 5500 1600 
Q 5300 1775 5062 1975 
Q 4825 2175 4575 2325 
Q 4725 2475 4850 2650 
z
M 5725 3525 
Q 5550 3450 5300 3262 
Q 5050 3075 4800 2825 
Q 4625 3050 4475 3175 
Q 4700 3325 4875 3487 
Q 5050 3650 5300 3925 
Q 5525 3700 5725 3525 
z
M 1050 3850 
Q 1425 3600 1775 3275 
Q 1575 3100 1425 2925 
Q 1075 3300 675 3525 
Q 875 3700 1050 3850 
z
" transform="scale(0.015625)"/>
      </defs>
      <use xlink:href="#SimHei-9760"/>
      <use xlink:href="#SimHei-6865" x="100"/>
      <use xlink:href="#SimHei-7387" x="200"/>
     </g>
    </g>
   </g>
   <g id="matplotlib.axis_2">
    <g id="ytick_1">
     <g id="line2d_6">
      <defs>
       <path id="m6962d3ff3a" d="M 0 0 
L -3.5 0 
" style="stroke: #000000; stroke-width: 0.8"/>
      </defs>
      <g>
       <use xlink:href="#m6962d3ff3a" x="42.2625" y="330.052123" style="stroke: #000000; stroke-width: 0.8"/>
      </g>
     </g>
     <g id="text_7">
      <!-- 128 -->
      <g transform="translate(20.2625 333.489623) scale(0.1 -0.1)">
       <defs>
        <path id="SimHei-31" d="M 1400 3600 
Q 1075 3275 575 2975 
L 575 3450 
Q 1200 3875 1600 4450 
L 1900 4450 
L 1900 150 
L 1400 150 
L 1400 3600 
z
" transform="scale(0.015625)"/>
       </defs>
       <use xlink:href="#SimHei-31"/>
       <use xlink:href="#SimHei-32" x="50"/>
       <use xlink:href="#SimHei-38" x="100"/>
      </g>
     </g>
    </g>
    <g id="ytick_2">
     <g id="line2d_7">
      <g>
       <use xlink:href="#m6962d3ff3a" x="42.2625" y="285.001844" style="stroke: #000000; stroke-width: 0.8"/>
      </g>
     </g>
     <g id="text_8">
      <!-- 130 -->
      <g transform="translate(20.2625 288.439344) scale(0.1 -0.1)">
       <defs>
        <path id="SimHei-33" d="M 250 1225 
L 700 1300 
Q 800 975 1025 762 
Q 1250 550 1587 562 
Q 1925 575 2125 837 
Q 2325 1100 2300 1437 
Q 2275 1775 2037 1962 
Q 1800 2150 1275 2225 
L 1275 2550 
Q 1800 2600 2037 2825 
Q 2275 3050 2250 3412 
Q 2225 3775 1925 3937 
Q 1625 4100 1287 3975 
Q 950 3850 750 3275 
L 300 3350 
Q 450 3800 712 4100 
Q 975 4400 1425 4450 
Q 1875 4500 2212 4337 
Q 2550 4175 2687 3837 
Q 2825 3500 2725 3100 
Q 2625 2700 2150 2400 
Q 2500 2250 2687 1950 
Q 2875 1650 2812 1162 
Q 2750 675 2375 375 
Q 2000 75 1525 87 
Q 1050 100 700 387 
Q 350 675 250 1225 
z
" transform="scale(0.015625)"/>
       </defs>
       <use xlink:href="#SimHei-31"/>
       <use xlink:href="#SimHei-33" x="50"/>
       <use xlink:href="#SimHei-30" x="100"/>
      </g>
     </g>
    </g>
    <g id="ytick_3">
     <g id="line2d_8">
      <g>
       <use xlink:href="#m6962d3ff3a" x="42.2625" y="239.951564" style="stroke: #000000; stroke-width: 0.8"/>
      </g>
     </g>
     <g id="text_9">
      <!-- 132 -->
      <g transform="translate(20.2625 243.389064) scale(0.1 -0.1)">
       <use xlink:href="#SimHei-31"/>
       <use xlink:href="#SimHei-33" x="50"/>
       <use xlink:href="#SimHei-32" x="100"/>
      </g>
     </g>
    </g>
    <g id="ytick_4">
     <g id="line2d_9">
      <g>
       <use xlink:href="#m6962d3ff3a" x="42.2625" y="194.901285" style="stroke: #000000; stroke-width: 0.8"/>
      </g>
     </g>
     <g id="text_10">
      <!-- 134 -->
      <g transform="translate(20.2625 198.338785) scale(0.1 -0.1)">
       <use xlink:href="#SimHei-31"/>
       <use xlink:href="#SimHei-33" x="50"/>
       <use xlink:href="#SimHei-34" x="100"/>
      </g>
     </g>
    </g>
    <g id="ytick_5">
     <g id="line2d_10">
      <g>
       <use xlink:href="#m6962d3ff3a" x="42.2625" y="149.851006" style="stroke: #000000; stroke-width: 0.8"/>
      </g>
     </g>
     <g id="text_11">
      <!-- 136 -->
      <g transform="translate(20.2625 153.288506) scale(0.1 -0.1)">
       <use xlink:href="#SimHei-31"/>
       <use xlink:href="#SimHei-33" x="50"/>
       <use xlink:href="#SimHei-36" x="100"/>
      </g>
     </g>
    </g>
    <g id="ytick_6">
     <g id="line2d_11">
      <g>
       <use xlink:href="#m6962d3ff3a" x="42.2625" y="104.800726" style="stroke: #000000; stroke-width: 0.8"/>
      </g>
     </g>
     <g id="text_12">
      <!-- 138 -->
      <g transform="translate(20.2625 108.238226) scale(0.1 -0.1)">
       <use xlink:href="#SimHei-31"/>
       <use xlink:href="#SimHei-33" x="50"/>
       <use xlink:href="#SimHei-38" x="100"/>
      </g>
     </g>
    </g>
    <g id="ytick_7">
     <g id="line2d_12">
      <g>
       <use xlink:href="#m6962d3ff3a" x="42.2625" y="59.750447" style="stroke: #000000; stroke-width: 0.8"/>
      </g>
     </g>
     <g id="text_13">
      <!-- 140 -->
      <g transform="translate(20.2625 63.187947) scale(0.1 -0.1)">
       <use xlink:href="#SimHei-31"/>
       <use xlink:href="#SimHei-34" x="50"/>
       <use xlink:href="#SimHei-30" x="100"/>
      </g>
     </g>
    </g>
    <g id="text_14">
     <!-- 机型大小匹配值 -->
     <g transform="translate(15.0125 224.27) rotate(-90) scale(0.1 -0.1)">
      <defs>
       <path id="SimHei-673a" d="M 5100 4775 
Q 5075 4075 5075 3575 
L 5075 325 
Q 5075 0 5225 -25 
Q 5375 -50 5475 -37 
Q 5575 -25 5612 137 
Q 5650 300 5650 625 
Q 5875 500 6175 425 
Q 6075 -100 5975 -275 
Q 5875 -450 5650 -450 
L 5125 -450 
Q 4825 -450 4687 -312 
Q 4550 -175 4575 250 
L 4575 4350 
L 3625 4350 
Q 3625 2925 3587 2137 
Q 3550 1350 3362 712 
Q 3175 75 2625 -575 
Q 2500 -425 2175 -175 
Q 2525 100 2737 500 
Q 2950 900 3025 1325 
Q 3100 1750 3125 2225 
Q 3150 2700 3150 3425 
Q 3150 4175 3125 4775 
L 5100 4775 
z
M 2150 2725 
Q 2550 2175 2750 1875 
Q 2575 1725 2325 1550 
Q 2175 1875 1800 2425 
L 1800 600 
Q 1800 100 1825 -525 
L 1275 -525 
Q 1300 100 1300 600 
L 1300 2200 
Q 1175 1825 1025 1487 
Q 875 1150 600 725 
Q 375 975 200 1125 
Q 400 1350 725 2000 
Q 1050 2650 1225 3450 
L 1075 3450 
Q 725 3450 375 3400 
L 375 3875 
Q 725 3850 1050 3850 
L 1300 3850 
L 1300 4350 
Q 1300 4750 1275 5100 
L 1850 5100 
Q 1800 4850 1800 4350 
L 1800 3850 
L 2075 3850 
Q 2350 3850 2700 3875 
L 2700 3425 
Q 2150 3450 1800 3450 
L 1800 2450 
Q 1950 2575 2150 2725 
z
" transform="scale(0.015625)"/>
       <path id="SimHei-578b" d="M 2625 1775 
Q 2650 2325 2650 2700 
L 2650 3000 
L 1825 3000 
Q 1725 2375 1425 2000 
Q 1125 1625 775 1425 
Q 650 1650 375 1900 
Q 850 2075 1062 2362 
Q 1275 2650 1350 3000 
Q 900 3000 375 2975 
L 375 3450 
Q 925 3425 1400 3425 
Q 1425 3950 1425 4475 
Q 1075 4475 700 4450 
L 700 4900 
Q 1050 4875 1525 4875 
L 3000 4875 
Q 3275 4875 3650 4900 
L 3650 4450 
Q 3325 4475 3125 4475 
L 3125 3425 
Q 3450 3425 3825 3450 
L 3825 2975 
Q 3450 3000 3125 3000 
L 3125 2675 
Q 3125 2225 3150 1775 
L 2625 1775 
z
M 3000 1175 
Q 3000 1375 2975 1725 
L 3500 1725 
Q 3475 1375 3475 1175 
L 4550 1175 
Q 5050 1175 5450 1200 
L 5450 725 
Q 4975 750 4550 750 
L 3475 750 
L 3475 -50 
L 5275 -50 
Q 5700 -50 6100 -25 
L 6100 -500 
Q 5725 -475 5300 -475 
L 1250 -475 
Q 775 -475 400 -500 
L 400 -25 
Q 775 -50 1250 -50 
L 3000 -50 
L 3000 750 
L 2025 750 
Q 1500 750 975 725 
L 1050 1200 
Q 1500 1175 2025 1175 
L 3000 1175 
z
M 5775 5200 
Q 5750 4775 5750 4325 
L 5750 2400 
Q 5775 1950 5612 1775 
Q 5450 1600 4900 1525 
Q 4825 1775 4675 2100 
Q 5175 2075 5237 2150 
Q 5300 2225 5300 2525 
L 5300 4325 
Q 5300 4775 5275 5200 
L 5775 5200 
z
M 4600 4750 
Q 4575 4450 4575 3975 
L 4575 3200 
Q 4575 2825 4600 2425 
L 4100 2425 
Q 4125 2825 4125 3200 
L 4125 3975 
Q 4125 4450 4100 4750 
L 4600 4750 
z
M 2650 3425 
L 2650 4475 
L 1875 4475 
Q 1850 3750 1850 3425 
L 2650 3425 
z
" transform="scale(0.015625)"/>
       <path id="SimHei-5927" d="M 2900 3400 
Q 2925 4275 2912 4575 
Q 2900 4875 2875 5150 
Q 3175 5100 3550 5075 
Q 3475 4825 3437 4350 
Q 3400 3875 3400 3400 
L 4675 3400 
Q 5350 3400 5925 3450 
L 5925 2900 
Q 5425 2925 4900 2925 
L 3425 2925 
Q 3525 2500 3775 2062 
Q 4025 1625 4287 1287 
Q 4550 950 5012 575 
Q 5475 200 6025 -50 
Q 5825 -200 5625 -550 
Q 5175 -300 4737 75 
Q 4300 450 3862 1062 
Q 3425 1675 3200 2200 
Q 3000 1650 2775 1287 
Q 2550 925 2287 625 
Q 2025 325 1612 25 
Q 1200 -275 675 -575 
Q 475 -275 225 -50 
Q 750 125 1262 450 
Q 1775 775 2100 1187 
Q 2425 1600 2625 2050 
Q 2825 2500 2875 2925 
L 1500 2925 
Q 900 2925 550 2900 
L 550 3450 
Q 900 3425 1500 3400 
L 2900 3400 
z
" transform="scale(0.015625)"/>
       <path id="SimHei-5c0f" d="M 3500 5150 
Q 3475 4800 3475 4200 
L 3475 175 
Q 3475 -300 3225 -425 
Q 2975 -550 2375 -600 
Q 2325 -300 2150 -25 
Q 2700 -25 2837 0 
Q 2975 25 2975 300 
L 2975 4200 
Q 2975 4650 2950 5150 
L 3500 5150 
z
M 2075 3400 
Q 1850 2775 1550 1962 
Q 1250 1150 1025 750 
Q 775 950 500 1000 
Q 925 1750 1175 2487 
Q 1425 3225 1500 3575 
Q 1800 3425 2075 3400 
z
M 4675 3600 
Q 5675 1800 5875 1150 
Q 5625 1100 5375 925 
Q 5000 2000 4225 3325 
Q 4425 3425 4675 3600 
z
" transform="scale(0.015625)"/>
       <path id="SimHei-5339" d="M 4375 1075 
Q 3900 1075 3900 1575 
L 3900 4275 
L 3050 4275 
Q 3050 3425 3025 2900 
Q 3000 2375 2775 1837 
Q 2550 1300 1950 750 
Q 1850 975 1475 1050 
Q 1875 1350 2137 1725 
Q 2400 2100 2500 2587 
Q 2600 3075 2575 4275 
L 1225 4275 
L 1225 75 
L 5025 75 
Q 5600 75 5950 100 
L 5950 -375 
Q 5600 -350 5025 -350 
L 725 -350 
Q 775 250 775 650 
L 775 3700 
Q 775 4225 725 4700 
L 5000 4700 
Q 5475 4700 5800 4725 
L 5800 4250 
Q 5475 4275 5000 4275 
L 4375 4275 
L 4375 1875 
Q 4375 1550 4525 1537 
Q 4675 1525 4875 1525 
Q 5075 1525 5212 1550 
Q 5350 1575 5425 2175 
Q 5675 2025 5975 1950 
Q 5825 1325 5675 1200 
Q 5525 1075 5225 1075 
L 4375 1075 
z
" transform="scale(0.015625)"/>
       <path id="SimHei-914d" d="M 1250 3825 
L 1250 4575 
Q 675 4575 275 4550 
L 275 5025 
Q 700 5000 1750 5000 
Q 2800 5000 3300 5025 
L 3300 4550 
Q 2975 4575 2425 4575 
L 2425 3825 
L 3275 3825 
Q 3250 3000 3250 1700 
Q 3250 400 3275 -500 
L 2800 -500 
L 2800 -50 
L 875 -50 
L 875 -575 
L 425 -575 
Q 450 225 450 1725 
Q 450 3250 425 3825 
L 1250 3825 
z
M 3550 5050 
Q 4150 5025 4550 5025 
L 5775 5025 
Q 5750 4550 5750 3725 
Q 5750 2925 5775 2475 
L 4175 2475 
L 4175 225 
Q 4175 -100 4500 -100 
L 5300 -100 
Q 5500 -100 5562 125 
Q 5625 350 5625 700 
Q 5875 500 6175 450 
Q 6000 -175 5887 -350 
Q 5775 -525 5425 -525 
L 4175 -525 
Q 3725 -525 3725 75 
L 3725 2075 
Q 3725 2425 3700 2875 
L 5275 2875 
L 5275 4600 
Q 4025 4600 3550 4575 
L 3550 5050 
z
M 875 1225 
L 2800 1225 
L 2800 1800 
L 2300 1800 
Q 2025 1875 2025 2175 
L 2025 3450 
L 1625 3450 
Q 1625 2900 1575 2475 
Q 1525 2050 1300 1575 
Q 1125 1700 875 1750 
L 875 1225 
z
M 2800 350 
L 2800 875 
L 875 875 
L 875 350 
L 2800 350 
z
M 2400 2450 
Q 2400 2125 2800 2175 
L 2800 3450 
L 2400 3450 
L 2400 2450 
z
M 875 1850 
Q 1100 2150 1175 2537 
Q 1250 2925 1250 3450 
L 875 3450 
L 875 1850 
z
M 2025 3825 
L 2025 4575 
L 1625 4575 
L 1625 3825 
L 2025 3825 
z
" transform="scale(0.015625)"/>
       <path id="SimHei-503c" d="M 3675 4450 
L 3675 5100 
Q 3975 5075 4350 5050 
Q 4225 4875 4200 4450 
L 5125 4450 
Q 5550 4450 5875 4475 
L 5875 4025 
Q 5525 4050 5125 4050 
L 4175 4050 
L 4125 3500 
L 5400 3500 
Q 5375 3200 5375 2700 
L 5375 150 
Q 5875 150 6100 175 
L 6100 -275 
Q 5775 -250 5200 -250 
L 2850 -250 
Q 2275 -250 1900 -275 
L 1900 175 
Q 2125 150 2600 150 
L 2600 2700 
Q 2600 3175 2575 3500 
L 3600 3500 
L 3650 4050 
L 3200 4050 
Q 2575 4050 2225 4025 
L 2225 4475 
Q 2550 4450 3200 4450 
L 3675 4450 
z
M 2225 4900 
Q 2025 4675 1650 3750 
L 1650 450 
Q 1650 -75 1675 -550 
L 1150 -550 
Q 1175 -125 1175 375 
L 1175 2950 
Q 875 2450 625 2150 
Q 425 2425 250 2575 
Q 500 2825 937 3537 
Q 1375 4250 1625 5150 
Q 1975 4975 2225 4900 
z
M 4925 2650 
L 4925 3150 
L 3075 3150 
L 3075 2650 
L 4925 2650 
z
M 4925 150 
L 4925 625 
L 3075 625 
L 3075 150 
L 4925 150 
z
M 4925 1000 
L 4925 1450 
L 3075 1450 
L 3075 1000 
L 4925 1000 
z
M 4925 1825 
L 4925 2275 
L 3075 2275 
L 3075 1825 
L 4925 1825 
z
" transform="scale(0.015625)"/>
      </defs>
      <use xlink:href="#SimHei-673a"/>
      <use xlink:href="#SimHei-578b" x="100"/>
      <use xlink:href="#SimHei-5927" x="200"/>
      <use xlink:href="#SimHei-5c0f" x="300"/>
      <use xlink:href="#SimHei-5339" x="400"/>
      <use xlink:href="#SimHei-914d" x="500"/>
      <use xlink:href="#SimHei-503c" x="600"/>
     </g>
    </g>
   </g>
   <g id="patch_3">
    <path d="M 42.2625 355.59 
L 42.2625 22.95 
" style="fill: none; stroke: #000000; stroke-width: 0.8; stroke-linejoin: miter; stroke-linecap: square"/>
   </g>
   <g id="patch_4">
    <path d="M 600.2625 355.59 
L 600.2625 22.95 
" style="fill: none; stroke: #000000; stroke-width: 0.8; stroke-linejoin: miter; stroke-linecap: square"/>
   </g>
   <g id="patch_5">
    <path d="M 42.2625 355.59 
L 600.2625 355.59 
" style="fill: none; stroke: #000000; stroke-width: 0.8; stroke-linejoin: miter; stroke-linecap: square"/>
   </g>
   <g id="patch_6">
    <path d="M 42.2625 22.95 
L 600.2625 22.95 
" style="fill: none; stroke: #000000; stroke-width: 0.8; stroke-linejoin: miter; stroke-linecap: square"/>
   </g>
   <g id="text_15">
    <!-- 种群分布图 -->
    <g transform="translate(291.2625 16.95) scale(0.12 -0.12)">
     <defs>
      <path id="SimHei-79cd" d="M 4225 4000 
Q 4225 4975 4200 5275 
L 4725 5275 
Q 4700 5000 4700 4000 
L 6000 4000 
Q 5975 3725 5975 3250 
L 5975 1550 
Q 5975 1275 6000 925 
L 5500 925 
L 5500 1425 
L 4700 1425 
L 4700 375 
Q 4700 -275 4725 -700 
L 4200 -700 
Q 4225 -275 4225 375 
L 4225 1425 
L 3425 1425 
L 3425 825 
L 2925 825 
Q 2950 1125 2950 1500 
L 2950 3200 
Q 2950 3725 2925 4000 
L 4225 4000 
z
M 350 3250 
Q 725 3225 1225 3225 
L 1425 3225 
L 1425 4325 
Q 1175 4250 575 4125 
Q 475 4350 350 4575 
Q 900 4600 1412 4737 
Q 1925 4875 2350 5100 
Q 2500 4900 2725 4625 
Q 2475 4600 2300 4550 
Q 2125 4500 1900 4450 
L 1900 3225 
Q 2225 3225 2700 3250 
L 2700 2800 
Q 2225 2825 1900 2825 
L 1900 225 
Q 1900 -125 1925 -650 
L 1400 -650 
Q 1425 -125 1425 225 
L 1425 1875 
Q 1225 1375 1062 1075 
Q 900 775 625 350 
Q 425 625 250 850 
Q 600 1225 887 1725 
Q 1175 2225 1300 2825 
L 925 2825 
Q 575 2825 350 2800 
L 350 3250 
z
M 4225 1825 
L 4225 3600 
L 3425 3600 
L 3425 1825 
L 4225 1825 
z
M 5500 1825 
L 5500 3600 
L 4700 3600 
L 4700 1825 
L 5500 1825 
z
M 2375 2475 
Q 2450 2300 2575 2125 
Q 2700 1950 2850 1625 
Q 2625 1525 2425 1375 
Q 2300 1650 2212 1837 
Q 2125 2025 1975 2225 
Q 2125 2325 2375 2475 
z
" transform="scale(0.015625)"/>
      <path id="SimHei-7fa4" d="M 2500 -425 
L 2500 25 
L 1475 25 
L 1475 -600 
L 1000 -600 
Q 1025 -225 1025 1400 
Q 825 1100 600 850 
Q 450 1050 200 1125 
Q 450 1375 700 1725 
Q 950 2075 1050 2375 
Q 850 2375 550 2350 
L 550 2775 
Q 900 2750 1125 2750 
Q 1200 3125 1200 3400 
Q 675 3400 375 3375 
L 375 3800 
Q 700 3775 1200 3775 
L 1200 4475 
Q 1050 4475 650 4450 
L 650 4900 
Q 1025 4875 1275 4875 
L 2950 4875 
Q 2925 4500 2925 3775 
Q 3075 3775 3275 3800 
L 3275 3375 
Q 3075 3400 2925 3400 
Q 2925 2675 2950 2375 
L 1500 2375 
Q 1350 1925 1225 1750 
L 2975 1750 
Q 2950 1425 2950 675 
Q 2950 -75 2975 -425 
L 2500 -425 
z
M 4875 1275 
Q 5825 1275 6075 1300 
L 6075 875 
Q 5825 900 4875 900 
L 4875 225 
Q 4875 -225 4900 -700 
L 4400 -700 
Q 4425 -225 4425 225 
L 4425 900 
Q 3550 900 3200 875 
L 3200 1300 
Q 3550 1275 4425 1275 
L 4425 2250 
Q 3675 2250 3400 2225 
L 3400 2650 
Q 3700 2625 4425 2625 
L 4425 3500 
Q 3775 3500 3375 3475 
L 3375 3900 
Q 3775 3875 4750 3875 
Q 5025 4475 5225 5175 
Q 5525 5025 5800 4975 
Q 5700 4825 5550 4562 
Q 5400 4300 5200 3875 
Q 5625 3875 5950 3900 
L 5950 3475 
Q 5650 3500 4875 3500 
L 4875 2625 
L 5225 2625 
L 5875 2650 
L 5875 2225 
Q 5525 2250 4875 2250 
L 4875 1275 
z
M 2500 400 
L 2500 1350 
L 1475 1350 
L 1475 400 
L 2500 400 
z
M 2475 3775 
L 2475 4475 
L 1650 4475 
L 1650 3775 
L 2475 3775 
z
M 2475 2750 
L 2475 3400 
L 1650 3400 
Q 1625 3125 1575 2750 
L 2475 2750 
z
M 4025 4175 
Q 3800 4600 3575 4925 
Q 3750 5000 3925 5150 
Q 4150 4900 4425 4450 
Q 4175 4300 4025 4175 
z
" transform="scale(0.015625)"/>
      <path id="SimHei-5206" d="M 1000 -650 
Q 825 -375 575 -225 
Q 975 -75 1300 137 
Q 1625 350 1875 662 
Q 2125 975 2250 1350 
Q 2375 1725 2425 2275 
Q 1850 2275 1500 2250 
L 1500 2775 
Q 1900 2750 2525 2750 
L 5025 2750 
Q 4975 2375 4950 2100 
L 4750 250 
Q 4700 -200 4350 -350 
Q 4000 -500 3575 -525 
Q 3550 -275 3325 50 
Q 3850 25 4037 87 
Q 4225 150 4275 525 
L 4450 2275 
L 2950 2275 
Q 2875 1625 2737 1187 
Q 2600 750 2350 425 
Q 2100 100 1750 -175 
Q 1400 -450 1000 -650 
z
M 3950 5175 
Q 4125 4650 4662 3975 
Q 5200 3300 6175 2800 
Q 5975 2625 5775 2275 
Q 5325 2600 4987 2887 
Q 4650 3175 4425 3425 
Q 4200 3675 3925 4137 
Q 3650 4600 3475 5000 
Q 3750 5075 3950 5175 
z
M 2700 4825 
Q 2475 4425 2325 4125 
Q 2175 3825 2025 3587 
Q 1875 3350 1575 2950 
Q 1275 2550 850 2125 
Q 625 2350 400 2475 
Q 900 2925 1187 3300 
Q 1475 3675 1737 4112 
Q 2000 4550 2200 5075 
Q 2400 4925 2700 4825 
z
" transform="scale(0.015625)"/>
      <path id="SimHei-5e03" d="M 2375 4225 
Q 2650 4775 2775 5300 
Q 3125 5175 3400 5075 
Q 3275 4975 2950 4225 
L 4800 4225 
Q 5550 4225 6025 4250 
L 6025 3800 
L 2725 3800 
Q 2325 3100 1975 2675 
L 3275 2675 
Q 3275 3225 3250 3575 
L 3775 3575 
Q 3750 3225 3750 2675 
L 5500 2675 
Q 5475 2225 5475 1775 
L 5475 750 
Q 5475 275 5212 150 
Q 4950 25 4450 -25 
Q 4400 325 4225 550 
Q 4800 550 4912 625 
Q 5025 700 5000 1025 
L 5000 2250 
L 3750 2250 
L 3750 550 
Q 3750 25 3775 -600 
L 3250 -600 
Q 3275 25 3275 550 
L 3275 2250 
L 2100 2250 
L 2100 0 
L 1600 0 
Q 1625 525 1625 1025 
L 1625 2225 
Q 1300 1850 650 1275 
Q 475 1475 200 1650 
Q 750 2025 1262 2562 
Q 1775 3100 2150 3800 
L 1550 3800 
Q 925 3800 400 3775 
L 400 4250 
Q 925 4225 1550 4225 
L 2375 4225 
z
" transform="scale(0.015625)"/>
      <path id="SimHei-56fe" d="M 5800 4975 
Q 5775 4350 5775 3600 
L 5775 925 
Q 5775 150 5800 -600 
L 5300 -600 
L 5300 -275 
L 1125 -275 
L 1125 -650 
L 625 -650 
Q 650 125 650 950 
L 650 3600 
Q 650 4325 625 4975 
L 5800 4975 
z
M 5300 150 
L 5300 4575 
L 1125 4575 
L 1125 150 
L 5300 150 
z
M 3225 4250 
Q 3075 4100 2950 3925 
L 4625 3925 
Q 4525 3700 4300 3375 
Q 4075 3050 3600 2600 
Q 4350 2225 5075 2150 
Q 4900 1925 4775 1675 
Q 3850 1950 3225 2350 
Q 2500 1875 1675 1650 
Q 1600 1875 1400 2075 
Q 2200 2200 2875 2600 
Q 2525 2925 2375 3150 
Q 2150 2900 1900 2650 
Q 1725 2850 1525 2950 
Q 1950 3300 2250 3737 
Q 2550 4175 2675 4475 
Q 2925 4350 3225 4250 
z
M 2450 1275 
Q 3550 950 4100 725 
Q 3975 525 3850 300 
Q 2825 725 2275 850 
Q 2375 1050 2450 1275 
z
M 2925 2050 
Q 3775 1700 4075 1600 
Q 3950 1400 3850 1150 
Q 3000 1550 2700 1650 
Q 2825 1825 2925 2050 
z
M 2625 3450 
Q 3000 3025 3275 2850 
Q 3600 3100 3875 3525 
L 2675 3525 
L 2625 3450 
z
" transform="scale(0.015625)"/>
     </defs>
     <use xlink:href="#SimHei-79cd"/>
     <use xlink:href="#SimHei-7fa4" x="100"/>
     <use xlink:href="#SimHei-5206" x="200"/>
     <use xlink:href="#SimHei-5e03" x="300"/>
     <use xlink:href="#SimHei-56fe" x="400"/>
    </g>
   </g>
  </g>
 </g>
 <defs>
  <clipPath id="pb3f0c151e4">
   <rect x="42.2625" y="22.95" width="558" height="332.64"/>
  </clipPath>
 </defs>
</svg>
