<?xml version="1.0" encoding="utf-8" standalone="no"?>
<!DOCTYPE svg PUBLIC "-//W3C//DTD SVG 1.1//EN"
  "http://www.w3.org/Graphics/SVG/1.1/DTD/svg11.dtd">
<svg xmlns:xlink="http://www.w3.org/1999/xlink" width="617.579687pt" height="391.079062pt" viewBox="0 0 617.579687 391.079062" xmlns="http://www.w3.org/2000/svg" version="1.1">
 <metadata>
  <rdf:RDF xmlns:dc="http://purl.org/dc/elements/1.1/" xmlns:cc="http://creativecommons.org/ns#" xmlns:rdf="http://www.w3.org/1999/02/22-rdf-syntax-ns#">
   <cc:Work>
    <dc:type rdf:resource="http://purl.org/dc/dcmitype/StillImage"/>
    <dc:date>2024-07-20T14:23:00.045234</dc:date>
    <dc:format>image/svg+xml</dc:format>
    <dc:creator>
     <cc:Agent>
      <dc:title>Matplotlib v3.8.2, https://matplotlib.org/</dc:title>
     </cc:Agent>
    </dc:creator>
   </cc:Work>
  </rdf:RDF>
 </metadata>
 <defs>
  <style type="text/css">*{stroke-linejoin: round; stroke-linecap: butt}</style>
 </defs>
 <g id="figure_1">
  <g id="patch_1">
   <path d="M 0 391.079062 
L 617.579687 391.079062 
L 617.579687 0 
L 0 0 
z
" style="fill: #ffffff"/>
  </g>
  <g id="axes_1">
   <g id="patch_2">
    <path d="M 52.379687 355.49625 
L 610.379688 355.49625 
L 610.379688 22.85625 
L 52.379687 22.85625 
z
" style="fill: #ffffff"/>
   </g>
   <g id="PathCollection_1">
    <defs>
     <path id="mf50d3cb80b" d="M 0 3 
C 0.795609 3 1.55874 2.683901 2.12132 2.12132 
C 2.683901 1.55874 3 0.795609 3 0 
C 3 -0.795609 2.683901 -1.55874 2.12132 -2.12132 
C 1.55874 -2.683901 0.795609 -3 0 -3 
C -0.795609 -3 -1.55874 -2.683901 -2.12132 -2.12132 
C -2.683901 -1.55874 -3 -0.795609 -3 0 
C -3 0.795609 -2.683901 1.55874 -2.12132 2.12132 
C -1.55874 2.683901 -0.795609 3 0 3 
z
" style="stroke: #1f77b4"/>
    </defs>
    <g clip-path="url(#pc81fc8fa3b)">
     <use xlink:href="#mf50d3cb80b" x="77.743324" y="340.37625" style="fill: #1f77b4; stroke: #1f77b4"/>
    </g>
   </g>
   <g id="PathCollection_2">
    <defs>
     <path id="m650a1c8b82" d="M 0 3 
C 0.795609 3 1.55874 2.683901 2.12132 2.12132 
C 2.683901 1.55874 3 0.795609 3 0 
C 3 -0.795609 2.683901 -1.55874 2.12132 -2.12132 
C 1.55874 -2.683901 0.795609 -3 0 -3 
C -0.795609 -3 -1.55874 -2.683901 -2.12132 -2.12132 
C -2.683901 -1.55874 -3 -0.795609 -3 0 
C -3 0.795609 -2.683901 1.55874 -2.12132 2.12132 
C -1.55874 2.683901 -0.795609 3 0 3 
z
" style="stroke: #ff7f0e"/>
    </defs>
    <g clip-path="url(#pc81fc8fa3b)">
     <use xlink:href="#m650a1c8b82" x="82.867291" y="340.37625" style="fill: #ff7f0e; stroke: #ff7f0e"/>
    </g>
   </g>
   <g id="PathCollection_3">
    <defs>
     <path id="m12ea3665e0" d="M 0 3 
C 0.795609 3 1.55874 2.683901 2.12132 2.12132 
C 2.683901 1.55874 3 0.795609 3 0 
C 3 -0.795609 2.683901 -1.55874 2.12132 -2.12132 
C 1.55874 -2.683901 0.795609 -3 0 -3 
C -0.795609 -3 -1.55874 -2.683901 -2.12132 -2.12132 
C -2.683901 -1.55874 -3 -0.795609 -3 0 
C -3 0.795609 -2.683901 1.55874 -2.12132 2.12132 
C -1.55874 2.683901 -0.795609 3 0 3 
z
" style="stroke: #2ca02c"/>
    </defs>
    <g clip-path="url(#pc81fc8fa3b)">
     <use xlink:href="#m12ea3665e0" x="87.991258" y="340.37625" style="fill: #2ca02c; stroke: #2ca02c"/>
    </g>
   </g>
   <g id="PathCollection_4">
    <defs>
     <path id="md85d23448f" d="M 0 3 
C 0.795609 3 1.55874 2.683901 2.12132 2.12132 
C 2.683901 1.55874 3 0.795609 3 0 
C 3 -0.795609 2.683901 -1.55874 2.12132 -2.12132 
C 1.55874 -2.683901 0.795609 -3 0 -3 
C -0.795609 -3 -1.55874 -2.683901 -2.12132 -2.12132 
C -2.683901 -1.55874 -3 -0.795609 -3 0 
C -3 0.795609 -2.683901 1.55874 -2.12132 2.12132 
C -1.55874 2.683901 -0.795609 3 0 3 
z
" style="stroke: #d62728"/>
    </defs>
    <g clip-path="url(#pc81fc8fa3b)">
     <use xlink:href="#md85d23448f" x="93.115225" y="239.07225" style="fill: #d62728; stroke: #d62728"/>
    </g>
   </g>
   <g id="PathCollection_5">
    <defs>
     <path id="m0ca262306b" d="M 0 3 
C 0.795609 3 1.55874 2.683901 2.12132 2.12132 
C 2.683901 1.55874 3 0.795609 3 0 
C 3 -0.795609 2.683901 -1.55874 2.12132 -2.12132 
C 1.55874 -2.683901 0.795609 -3 0 -3 
C -0.795609 -3 -1.55874 -2.683901 -2.12132 -2.12132 
C -2.683901 -1.55874 -3 -0.795609 -3 0 
C -3 0.795609 -2.683901 1.55874 -2.12132 2.12132 
C -1.55874 2.683901 -0.795609 3 0 3 
z
" style="stroke: #9467bd"/>
    </defs>
    <g clip-path="url(#pc81fc8fa3b)">
     <use xlink:href="#m0ca262306b" x="98.239192" y="239.07225" style="fill: #9467bd; stroke: #9467bd"/>
    </g>
   </g>
   <g id="PathCollection_6">
    <defs>
     <path id="m5de1cf697b" d="M 0 3 
C 0.795609 3 1.55874 2.683901 2.12132 2.12132 
C 2.683901 1.55874 3 0.795609 3 0 
C 3 -0.795609 2.683901 -1.55874 2.12132 -2.12132 
C 1.55874 -2.683901 0.795609 -3 0 -3 
C -0.795609 -3 -1.55874 -2.683901 -2.12132 -2.12132 
C -2.683901 -1.55874 -3 -0.795609 -3 0 
C -3 0.795609 -2.683901 1.55874 -2.12132 2.12132 
C -1.55874 2.683901 -0.795609 3 0 3 
z
" style="stroke: #8c564b"/>
    </defs>
    <g clip-path="url(#pc81fc8fa3b)">
     <use xlink:href="#m5de1cf697b" x="103.363159" y="139.28025" style="fill: #8c564b; stroke: #8c564b"/>
    </g>
   </g>
   <g id="PathCollection_7">
    <defs>
     <path id="m06712950ba" d="M 0 3 
C 0.795609 3 1.55874 2.683901 2.12132 2.12132 
C 2.683901 1.55874 3 0.795609 3 0 
C 3 -0.795609 2.683901 -1.55874 2.12132 -2.12132 
C 1.55874 -2.683901 0.795609 -3 0 -3 
C -0.795609 -3 -1.55874 -2.683901 -2.12132 -2.12132 
C -2.683901 -1.55874 -3 -0.795609 -3 0 
C -3 0.795609 -2.683901 1.55874 -2.12132 2.12132 
C -1.55874 2.683901 -0.795609 3 0 3 
z
" style="stroke: #e377c2"/>
    </defs>
    <g clip-path="url(#pc81fc8fa3b)">
     <use xlink:href="#m06712950ba" x="108.487126" y="139.28025" style="fill: #e377c2; stroke: #e377c2"/>
    </g>
   </g>
   <g id="PathCollection_8">
    <defs>
     <path id="mbab2d94c83" d="M 0 3 
C 0.795609 3 1.55874 2.683901 2.12132 2.12132 
C 2.683901 1.55874 3 0.795609 3 0 
C 3 -0.795609 2.683901 -1.55874 2.12132 -2.12132 
C 1.55874 -2.683901 0.795609 -3 0 -3 
C -0.795609 -3 -1.55874 -2.683901 -2.12132 -2.12132 
C -2.683901 -1.55874 -3 -0.795609 -3 0 
C -3 0.795609 -2.683901 1.55874 -2.12132 2.12132 
C -1.55874 2.683901 -0.795609 3 0 3 
z
" style="stroke: #7f7f7f"/>
    </defs>
    <g clip-path="url(#pc81fc8fa3b)">
     <use xlink:href="#mbab2d94c83" x="113.611092" y="139.28025" style="fill: #7f7f7f; stroke: #7f7f7f"/>
    </g>
   </g>
   <g id="PathCollection_9">
    <defs>
     <path id="m7762c3ee3b" d="M 0 3 
C 0.795609 3 1.55874 2.683901 2.12132 2.12132 
C 2.683901 1.55874 3 0.795609 3 0 
C 3 -0.795609 2.683901 -1.55874 2.12132 -2.12132 
C 1.55874 -2.683901 0.795609 -3 0 -3 
C -0.795609 -3 -1.55874 -2.683901 -2.12132 -2.12132 
C -2.683901 -1.55874 -3 -0.795609 -3 0 
C -3 0.795609 -2.683901 1.55874 -2.12132 2.12132 
C -1.55874 2.683901 -0.795609 3 0 3 
z
" style="stroke: #bcbd22"/>
    </defs>
    <g clip-path="url(#pc81fc8fa3b)">
     <use xlink:href="#m7762c3ee3b" x="118.735059" y="139.28025" style="fill: #bcbd22; stroke: #bcbd22"/>
    </g>
   </g>
   <g id="PathCollection_10">
    <defs>
     <path id="m83984c5738" d="M 0 3 
C 0.795609 3 1.55874 2.683901 2.12132 2.12132 
C 2.683901 1.55874 3 0.795609 3 0 
C 3 -0.795609 2.683901 -1.55874 2.12132 -2.12132 
C 1.55874 -2.683901 0.795609 -3 0 -3 
C -0.795609 -3 -1.55874 -2.683901 -2.12132 -2.12132 
C -2.683901 -1.55874 -3 -0.795609 -3 0 
C -3 0.795609 -2.683901 1.55874 -2.12132 2.12132 
C -1.55874 2.683901 -0.795609 3 0 3 
z
" style="stroke: #17becf"/>
    </defs>
    <g clip-path="url(#pc81fc8fa3b)">
     <use xlink:href="#m83984c5738" x="123.859026" y="139.28025" style="fill: #17becf; stroke: #17becf"/>
    </g>
   </g>
   <g id="PathCollection_11">
    <g clip-path="url(#pc81fc8fa3b)">
     <use xlink:href="#mf50d3cb80b" x="128.982993" y="139.28025" style="fill: #1f77b4; stroke: #1f77b4"/>
    </g>
   </g>
   <g id="PathCollection_12">
    <g clip-path="url(#pc81fc8fa3b)">
     <use xlink:href="#m650a1c8b82" x="134.10696" y="139.28025" style="fill: #ff7f0e; stroke: #ff7f0e"/>
    </g>
   </g>
   <g id="PathCollection_13">
    <g clip-path="url(#pc81fc8fa3b)">
     <use xlink:href="#m12ea3665e0" x="139.230927" y="139.28025" style="fill: #2ca02c; stroke: #2ca02c"/>
    </g>
   </g>
   <g id="PathCollection_14">
    <g clip-path="url(#pc81fc8fa3b)">
     <use xlink:href="#md85d23448f" x="144.354894" y="37.97625" style="fill: #d62728; stroke: #d62728"/>
    </g>
   </g>
   <g id="PathCollection_15">
    <g clip-path="url(#pc81fc8fa3b)">
     <use xlink:href="#m0ca262306b" x="149.478861" y="37.97625" style="fill: #9467bd; stroke: #9467bd"/>
    </g>
   </g>
   <g id="PathCollection_16">
    <g clip-path="url(#pc81fc8fa3b)">
     <use xlink:href="#m5de1cf697b" x="154.602828" y="37.97625" style="fill: #8c564b; stroke: #8c564b"/>
    </g>
   </g>
   <g id="PathCollection_17">
    <g clip-path="url(#pc81fc8fa3b)">
     <use xlink:href="#m06712950ba" x="159.726795" y="37.97625" style="fill: #e377c2; stroke: #e377c2"/>
    </g>
   </g>
   <g id="PathCollection_18">
    <g clip-path="url(#pc81fc8fa3b)">
     <use xlink:href="#mbab2d94c83" x="164.850762" y="37.97625" style="fill: #7f7f7f; stroke: #7f7f7f"/>
    </g>
   </g>
   <g id="PathCollection_19">
    <g clip-path="url(#pc81fc8fa3b)">
     <use xlink:href="#m7762c3ee3b" x="169.974729" y="37.97625" style="fill: #bcbd22; stroke: #bcbd22"/>
    </g>
   </g>
   <g id="PathCollection_20">
    <g clip-path="url(#pc81fc8fa3b)">
     <use xlink:href="#m83984c5738" x="175.098696" y="37.97625" style="fill: #17becf; stroke: #17becf"/>
    </g>
   </g>
   <g id="PathCollection_21">
    <g clip-path="url(#pc81fc8fa3b)">
     <use xlink:href="#mf50d3cb80b" x="180.222663" y="37.97625" style="fill: #1f77b4; stroke: #1f77b4"/>
    </g>
   </g>
   <g id="PathCollection_22">
    <g clip-path="url(#pc81fc8fa3b)">
     <use xlink:href="#m650a1c8b82" x="185.34663" y="37.97625" style="fill: #ff7f0e; stroke: #ff7f0e"/>
    </g>
   </g>
   <g id="PathCollection_23">
    <g clip-path="url(#pc81fc8fa3b)">
     <use xlink:href="#m12ea3665e0" x="190.470597" y="37.97625" style="fill: #2ca02c; stroke: #2ca02c"/>
    </g>
   </g>
   <g id="PathCollection_24">
    <g clip-path="url(#pc81fc8fa3b)">
     <use xlink:href="#md85d23448f" x="195.594564" y="37.97625" style="fill: #d62728; stroke: #d62728"/>
    </g>
   </g>
   <g id="PathCollection_25">
    <g clip-path="url(#pc81fc8fa3b)">
     <use xlink:href="#m0ca262306b" x="200.71853" y="37.97625" style="fill: #9467bd; stroke: #9467bd"/>
    </g>
   </g>
   <g id="PathCollection_26">
    <g clip-path="url(#pc81fc8fa3b)">
     <use xlink:href="#m5de1cf697b" x="205.842497" y="37.97625" style="fill: #8c564b; stroke: #8c564b"/>
    </g>
   </g>
   <g id="PathCollection_27">
    <g clip-path="url(#pc81fc8fa3b)">
     <use xlink:href="#m06712950ba" x="210.966464" y="37.97625" style="fill: #e377c2; stroke: #e377c2"/>
    </g>
   </g>
   <g id="PathCollection_28">
    <g clip-path="url(#pc81fc8fa3b)">
     <use xlink:href="#mbab2d94c83" x="216.090431" y="37.97625" style="fill: #7f7f7f; stroke: #7f7f7f"/>
    </g>
   </g>
   <g id="PathCollection_29">
    <g clip-path="url(#pc81fc8fa3b)">
     <use xlink:href="#m7762c3ee3b" x="221.214398" y="37.97625" style="fill: #bcbd22; stroke: #bcbd22"/>
    </g>
   </g>
   <g id="PathCollection_30">
    <g clip-path="url(#pc81fc8fa3b)">
     <use xlink:href="#m83984c5738" x="226.338365" y="37.97625" style="fill: #17becf; stroke: #17becf"/>
    </g>
   </g>
   <g id="PathCollection_31">
    <g clip-path="url(#pc81fc8fa3b)">
     <use xlink:href="#mf50d3cb80b" x="231.462332" y="37.97625" style="fill: #1f77b4; stroke: #1f77b4"/>
    </g>
   </g>
   <g id="PathCollection_32">
    <g clip-path="url(#pc81fc8fa3b)">
     <use xlink:href="#m650a1c8b82" x="236.586299" y="37.97625" style="fill: #ff7f0e; stroke: #ff7f0e"/>
    </g>
   </g>
   <g id="PathCollection_33">
    <g clip-path="url(#pc81fc8fa3b)">
     <use xlink:href="#m12ea3665e0" x="241.710266" y="37.97625" style="fill: #2ca02c; stroke: #2ca02c"/>
    </g>
   </g>
   <g id="PathCollection_34">
    <g clip-path="url(#pc81fc8fa3b)">
     <use xlink:href="#md85d23448f" x="246.834233" y="37.97625" style="fill: #d62728; stroke: #d62728"/>
    </g>
   </g>
   <g id="PathCollection_35">
    <g clip-path="url(#pc81fc8fa3b)">
     <use xlink:href="#m0ca262306b" x="251.9582" y="37.97625" style="fill: #9467bd; stroke: #9467bd"/>
    </g>
   </g>
   <g id="PathCollection_36">
    <g clip-path="url(#pc81fc8fa3b)">
     <use xlink:href="#m5de1cf697b" x="257.082167" y="37.97625" style="fill: #8c564b; stroke: #8c564b"/>
    </g>
   </g>
   <g id="PathCollection_37">
    <g clip-path="url(#pc81fc8fa3b)">
     <use xlink:href="#m06712950ba" x="262.206134" y="37.97625" style="fill: #e377c2; stroke: #e377c2"/>
    </g>
   </g>
   <g id="PathCollection_38">
    <g clip-path="url(#pc81fc8fa3b)">
     <use xlink:href="#mbab2d94c83" x="267.330101" y="37.97625" style="fill: #7f7f7f; stroke: #7f7f7f"/>
    </g>
   </g>
   <g id="PathCollection_39">
    <g clip-path="url(#pc81fc8fa3b)">
     <use xlink:href="#m7762c3ee3b" x="272.454068" y="37.97625" style="fill: #bcbd22; stroke: #bcbd22"/>
    </g>
   </g>
   <g id="PathCollection_40">
    <g clip-path="url(#pc81fc8fa3b)">
     <use xlink:href="#m83984c5738" x="277.578035" y="37.97625" style="fill: #17becf; stroke: #17becf"/>
    </g>
   </g>
   <g id="PathCollection_41">
    <g clip-path="url(#pc81fc8fa3b)">
     <use xlink:href="#mf50d3cb80b" x="282.702002" y="37.97625" style="fill: #1f77b4; stroke: #1f77b4"/>
    </g>
   </g>
   <g id="PathCollection_42">
    <g clip-path="url(#pc81fc8fa3b)">
     <use xlink:href="#m650a1c8b82" x="287.825968" y="37.97625" style="fill: #ff7f0e; stroke: #ff7f0e"/>
    </g>
   </g>
   <g id="PathCollection_43">
    <g clip-path="url(#pc81fc8fa3b)">
     <use xlink:href="#m12ea3665e0" x="292.949935" y="37.97625" style="fill: #2ca02c; stroke: #2ca02c"/>
    </g>
   </g>
   <g id="PathCollection_44">
    <g clip-path="url(#pc81fc8fa3b)">
     <use xlink:href="#md85d23448f" x="298.073902" y="37.97625" style="fill: #d62728; stroke: #d62728"/>
    </g>
   </g>
   <g id="PathCollection_45">
    <g clip-path="url(#pc81fc8fa3b)">
     <use xlink:href="#m0ca262306b" x="303.197869" y="37.97625" style="fill: #9467bd; stroke: #9467bd"/>
    </g>
   </g>
   <g id="PathCollection_46">
    <g clip-path="url(#pc81fc8fa3b)">
     <use xlink:href="#m5de1cf697b" x="308.321836" y="37.97625" style="fill: #8c564b; stroke: #8c564b"/>
    </g>
   </g>
   <g id="PathCollection_47">
    <g clip-path="url(#pc81fc8fa3b)">
     <use xlink:href="#m06712950ba" x="313.445803" y="37.97625" style="fill: #e377c2; stroke: #e377c2"/>
    </g>
   </g>
   <g id="PathCollection_48">
    <g clip-path="url(#pc81fc8fa3b)">
     <use xlink:href="#mbab2d94c83" x="318.56977" y="37.97625" style="fill: #7f7f7f; stroke: #7f7f7f"/>
    </g>
   </g>
   <g id="PathCollection_49">
    <g clip-path="url(#pc81fc8fa3b)">
     <use xlink:href="#m7762c3ee3b" x="323.693737" y="37.97625" style="fill: #bcbd22; stroke: #bcbd22"/>
    </g>
   </g>
   <g id="PathCollection_50">
    <g clip-path="url(#pc81fc8fa3b)">
     <use xlink:href="#m83984c5738" x="328.817704" y="37.97625" style="fill: #17becf; stroke: #17becf"/>
    </g>
   </g>
   <g id="PathCollection_51">
    <g clip-path="url(#pc81fc8fa3b)">
     <use xlink:href="#mf50d3cb80b" x="333.941671" y="37.97625" style="fill: #1f77b4; stroke: #1f77b4"/>
    </g>
   </g>
   <g id="PathCollection_52">
    <g clip-path="url(#pc81fc8fa3b)">
     <use xlink:href="#m650a1c8b82" x="339.065638" y="37.97625" style="fill: #ff7f0e; stroke: #ff7f0e"/>
    </g>
   </g>
   <g id="PathCollection_53">
    <g clip-path="url(#pc81fc8fa3b)">
     <use xlink:href="#m12ea3665e0" x="344.189605" y="37.97625" style="fill: #2ca02c; stroke: #2ca02c"/>
    </g>
   </g>
   <g id="PathCollection_54">
    <g clip-path="url(#pc81fc8fa3b)">
     <use xlink:href="#md85d23448f" x="349.313572" y="37.97625" style="fill: #d62728; stroke: #d62728"/>
    </g>
   </g>
   <g id="PathCollection_55">
    <g clip-path="url(#pc81fc8fa3b)">
     <use xlink:href="#m0ca262306b" x="354.437539" y="37.97625" style="fill: #9467bd; stroke: #9467bd"/>
    </g>
   </g>
   <g id="PathCollection_56">
    <g clip-path="url(#pc81fc8fa3b)">
     <use xlink:href="#m5de1cf697b" x="359.561506" y="37.97625" style="fill: #8c564b; stroke: #8c564b"/>
    </g>
   </g>
   <g id="PathCollection_57">
    <g clip-path="url(#pc81fc8fa3b)">
     <use xlink:href="#m06712950ba" x="364.685473" y="37.97625" style="fill: #e377c2; stroke: #e377c2"/>
    </g>
   </g>
   <g id="PathCollection_58">
    <g clip-path="url(#pc81fc8fa3b)">
     <use xlink:href="#mbab2d94c83" x="369.80944" y="37.97625" style="fill: #7f7f7f; stroke: #7f7f7f"/>
    </g>
   </g>
   <g id="PathCollection_59">
    <g clip-path="url(#pc81fc8fa3b)">
     <use xlink:href="#m7762c3ee3b" x="374.933407" y="37.97625" style="fill: #bcbd22; stroke: #bcbd22"/>
    </g>
   </g>
   <g id="PathCollection_60">
    <g clip-path="url(#pc81fc8fa3b)">
     <use xlink:href="#m83984c5738" x="380.057373" y="37.97625" style="fill: #17becf; stroke: #17becf"/>
    </g>
   </g>
   <g id="PathCollection_61">
    <g clip-path="url(#pc81fc8fa3b)">
     <use xlink:href="#mf50d3cb80b" x="385.18134" y="37.97625" style="fill: #1f77b4; stroke: #1f77b4"/>
    </g>
   </g>
   <g id="PathCollection_62">
    <g clip-path="url(#pc81fc8fa3b)">
     <use xlink:href="#m650a1c8b82" x="390.305307" y="37.97625" style="fill: #ff7f0e; stroke: #ff7f0e"/>
    </g>
   </g>
   <g id="PathCollection_63">
    <g clip-path="url(#pc81fc8fa3b)">
     <use xlink:href="#m12ea3665e0" x="395.429274" y="37.97625" style="fill: #2ca02c; stroke: #2ca02c"/>
    </g>
   </g>
   <g id="PathCollection_64">
    <g clip-path="url(#pc81fc8fa3b)">
     <use xlink:href="#md85d23448f" x="400.553241" y="37.97625" style="fill: #d62728; stroke: #d62728"/>
    </g>
   </g>
   <g id="PathCollection_65">
    <g clip-path="url(#pc81fc8fa3b)">
     <use xlink:href="#m0ca262306b" x="405.677208" y="37.97625" style="fill: #9467bd; stroke: #9467bd"/>
    </g>
   </g>
   <g id="PathCollection_66">
    <g clip-path="url(#pc81fc8fa3b)">
     <use xlink:href="#m5de1cf697b" x="410.801175" y="37.97625" style="fill: #8c564b; stroke: #8c564b"/>
    </g>
   </g>
   <g id="PathCollection_67">
    <g clip-path="url(#pc81fc8fa3b)">
     <use xlink:href="#m06712950ba" x="415.925142" y="37.97625" style="fill: #e377c2; stroke: #e377c2"/>
    </g>
   </g>
   <g id="PathCollection_68">
    <g clip-path="url(#pc81fc8fa3b)">
     <use xlink:href="#mbab2d94c83" x="421.049109" y="37.97625" style="fill: #7f7f7f; stroke: #7f7f7f"/>
    </g>
   </g>
   <g id="PathCollection_69">
    <g clip-path="url(#pc81fc8fa3b)">
     <use xlink:href="#m7762c3ee3b" x="426.173076" y="37.97625" style="fill: #bcbd22; stroke: #bcbd22"/>
    </g>
   </g>
   <g id="PathCollection_70">
    <g clip-path="url(#pc81fc8fa3b)">
     <use xlink:href="#m83984c5738" x="431.297043" y="37.97625" style="fill: #17becf; stroke: #17becf"/>
    </g>
   </g>
   <g id="PathCollection_71">
    <g clip-path="url(#pc81fc8fa3b)">
     <use xlink:href="#mf50d3cb80b" x="436.42101" y="37.97625" style="fill: #1f77b4; stroke: #1f77b4"/>
    </g>
   </g>
   <g id="PathCollection_72">
    <g clip-path="url(#pc81fc8fa3b)">
     <use xlink:href="#m650a1c8b82" x="441.544977" y="37.97625" style="fill: #ff7f0e; stroke: #ff7f0e"/>
    </g>
   </g>
   <g id="PathCollection_73">
    <g clip-path="url(#pc81fc8fa3b)">
     <use xlink:href="#m12ea3665e0" x="446.668944" y="37.97625" style="fill: #2ca02c; stroke: #2ca02c"/>
    </g>
   </g>
   <g id="PathCollection_74">
    <g clip-path="url(#pc81fc8fa3b)">
     <use xlink:href="#md85d23448f" x="451.792911" y="37.97625" style="fill: #d62728; stroke: #d62728"/>
    </g>
   </g>
   <g id="PathCollection_75">
    <g clip-path="url(#pc81fc8fa3b)">
     <use xlink:href="#m0ca262306b" x="456.916878" y="37.97625" style="fill: #9467bd; stroke: #9467bd"/>
    </g>
   </g>
   <g id="PathCollection_76">
    <g clip-path="url(#pc81fc8fa3b)">
     <use xlink:href="#m5de1cf697b" x="462.040845" y="37.97625" style="fill: #8c564b; stroke: #8c564b"/>
    </g>
   </g>
   <g id="PathCollection_77">
    <g clip-path="url(#pc81fc8fa3b)">
     <use xlink:href="#m06712950ba" x="467.164811" y="37.97625" style="fill: #e377c2; stroke: #e377c2"/>
    </g>
   </g>
   <g id="PathCollection_78">
    <g clip-path="url(#pc81fc8fa3b)">
     <use xlink:href="#mbab2d94c83" x="472.288778" y="37.97625" style="fill: #7f7f7f; stroke: #7f7f7f"/>
    </g>
   </g>
   <g id="PathCollection_79">
    <g clip-path="url(#pc81fc8fa3b)">
     <use xlink:href="#m7762c3ee3b" x="477.412745" y="37.97625" style="fill: #bcbd22; stroke: #bcbd22"/>
    </g>
   </g>
   <g id="PathCollection_80">
    <g clip-path="url(#pc81fc8fa3b)">
     <use xlink:href="#m83984c5738" x="482.536712" y="37.97625" style="fill: #17becf; stroke: #17becf"/>
    </g>
   </g>
   <g id="PathCollection_81">
    <g clip-path="url(#pc81fc8fa3b)">
     <use xlink:href="#mf50d3cb80b" x="487.660679" y="37.97625" style="fill: #1f77b4; stroke: #1f77b4"/>
    </g>
   </g>
   <g id="PathCollection_82">
    <g clip-path="url(#pc81fc8fa3b)">
     <use xlink:href="#m650a1c8b82" x="492.784646" y="37.97625" style="fill: #ff7f0e; stroke: #ff7f0e"/>
    </g>
   </g>
   <g id="PathCollection_83">
    <g clip-path="url(#pc81fc8fa3b)">
     <use xlink:href="#m12ea3665e0" x="497.908613" y="37.97625" style="fill: #2ca02c; stroke: #2ca02c"/>
    </g>
   </g>
   <g id="PathCollection_84">
    <g clip-path="url(#pc81fc8fa3b)">
     <use xlink:href="#md85d23448f" x="503.03258" y="37.97625" style="fill: #d62728; stroke: #d62728"/>
    </g>
   </g>
   <g id="PathCollection_85">
    <g clip-path="url(#pc81fc8fa3b)">
     <use xlink:href="#m0ca262306b" x="508.156547" y="37.97625" style="fill: #9467bd; stroke: #9467bd"/>
    </g>
   </g>
   <g id="PathCollection_86">
    <g clip-path="url(#pc81fc8fa3b)">
     <use xlink:href="#m5de1cf697b" x="513.280514" y="37.97625" style="fill: #8c564b; stroke: #8c564b"/>
    </g>
   </g>
   <g id="PathCollection_87">
    <g clip-path="url(#pc81fc8fa3b)">
     <use xlink:href="#m06712950ba" x="518.404481" y="37.97625" style="fill: #e377c2; stroke: #e377c2"/>
    </g>
   </g>
   <g id="PathCollection_88">
    <g clip-path="url(#pc81fc8fa3b)">
     <use xlink:href="#mbab2d94c83" x="523.528448" y="37.97625" style="fill: #7f7f7f; stroke: #7f7f7f"/>
    </g>
   </g>
   <g id="PathCollection_89">
    <g clip-path="url(#pc81fc8fa3b)">
     <use xlink:href="#m7762c3ee3b" x="528.652415" y="37.97625" style="fill: #bcbd22; stroke: #bcbd22"/>
    </g>
   </g>
   <g id="PathCollection_90">
    <g clip-path="url(#pc81fc8fa3b)">
     <use xlink:href="#m83984c5738" x="533.776382" y="37.97625" style="fill: #17becf; stroke: #17becf"/>
    </g>
   </g>
   <g id="PathCollection_91">
    <g clip-path="url(#pc81fc8fa3b)">
     <use xlink:href="#mf50d3cb80b" x="538.900349" y="37.97625" style="fill: #1f77b4; stroke: #1f77b4"/>
    </g>
   </g>
   <g id="PathCollection_92">
    <g clip-path="url(#pc81fc8fa3b)">
     <use xlink:href="#m650a1c8b82" x="544.024316" y="37.97625" style="fill: #ff7f0e; stroke: #ff7f0e"/>
    </g>
   </g>
   <g id="PathCollection_93">
    <g clip-path="url(#pc81fc8fa3b)">
     <use xlink:href="#m12ea3665e0" x="549.148283" y="37.97625" style="fill: #2ca02c; stroke: #2ca02c"/>
    </g>
   </g>
   <g id="PathCollection_94">
    <g clip-path="url(#pc81fc8fa3b)">
     <use xlink:href="#md85d23448f" x="554.272249" y="37.97625" style="fill: #d62728; stroke: #d62728"/>
    </g>
   </g>
   <g id="PathCollection_95">
    <g clip-path="url(#pc81fc8fa3b)">
     <use xlink:href="#m0ca262306b" x="559.396216" y="37.97625" style="fill: #9467bd; stroke: #9467bd"/>
    </g>
   </g>
   <g id="PathCollection_96">
    <g clip-path="url(#pc81fc8fa3b)">
     <use xlink:href="#m5de1cf697b" x="564.520183" y="37.97625" style="fill: #8c564b; stroke: #8c564b"/>
    </g>
   </g>
   <g id="PathCollection_97">
    <g clip-path="url(#pc81fc8fa3b)">
     <use xlink:href="#m06712950ba" x="569.64415" y="37.97625" style="fill: #e377c2; stroke: #e377c2"/>
    </g>
   </g>
   <g id="PathCollection_98">
    <g clip-path="url(#pc81fc8fa3b)">
     <use xlink:href="#mbab2d94c83" x="574.768117" y="37.97625" style="fill: #7f7f7f; stroke: #7f7f7f"/>
    </g>
   </g>
   <g id="PathCollection_99">
    <g clip-path="url(#pc81fc8fa3b)">
     <use xlink:href="#m7762c3ee3b" x="579.892084" y="37.97625" style="fill: #bcbd22; stroke: #bcbd22"/>
    </g>
   </g>
   <g id="PathCollection_100">
    <g clip-path="url(#pc81fc8fa3b)">
     <use xlink:href="#m83984c5738" x="585.016051" y="37.97625" style="fill: #17becf; stroke: #17becf"/>
    </g>
   </g>
   <g id="matplotlib.axis_1">
    <g id="xtick_1">
     <g id="line2d_1">
      <defs>
       <path id="m736b90c24f" d="M 0 0 
L 0 3.5 
" style="stroke: #000000; stroke-width: 0.8"/>
      </defs>
      <g>
       <use xlink:href="#m736b90c24f" x="77.743324" y="355.49625" style="stroke: #000000; stroke-width: 0.8"/>
      </g>
     </g>
     <g id="text_1">
      <!-- 0 -->
      <g transform="translate(75.243324 369.37125) scale(0.1 -0.1)">
       <defs>
        <path id="SimHei-30" d="M 225 2537 
Q 250 3200 412 3587 
Q 575 3975 875 4225 
Q 1175 4475 1612 4475 
Q 2050 4475 2375 4112 
Q 2700 3750 2800 3200 
Q 2900 2650 2862 1937 
Q 2825 1225 2612 775 
Q 2400 325 1975 150 
Q 1550 -25 1125 187 
Q 700 400 525 750 
Q 350 1100 275 1487 
Q 200 1875 225 2537 
z
M 750 2687 
Q 675 2000 800 1462 
Q 925 925 1212 700 
Q 1500 475 1800 612 
Q 2100 750 2237 1162 
Q 2375 1575 2375 2062 
Q 2375 2550 2337 2950 
Q 2300 3350 2112 3675 
Q 1925 4000 1612 4012 
Q 1300 4025 1062 3700 
Q 825 3375 750 2687 
z
" transform="scale(0.015625)"/>
       </defs>
       <use xlink:href="#SimHei-30"/>
      </g>
     </g>
    </g>
    <g id="xtick_2">
     <g id="line2d_2">
      <g>
       <use xlink:href="#m736b90c24f" x="180.222663" y="355.49625" style="stroke: #000000; stroke-width: 0.8"/>
      </g>
     </g>
     <g id="text_2">
      <!-- 20 -->
      <g transform="translate(175.222663 369.37125) scale(0.1 -0.1)">
       <defs>
        <path id="SimHei-32" d="M 300 250 
Q 325 625 650 925 
Q 975 1225 1475 1862 
Q 1975 2500 2125 2850 
Q 2275 3200 2237 3450 
Q 2200 3700 2000 3862 
Q 1800 4025 1537 4000 
Q 1275 3975 1037 3800 
Q 800 3625 675 3275 
L 200 3350 
Q 400 3925 712 4187 
Q 1025 4450 1450 4475 
Q 1700 4500 1900 4462 
Q 2100 4425 2312 4287 
Q 2525 4150 2662 3875 
Q 2800 3600 2762 3212 
Q 2725 2825 2375 2287 
Q 2025 1750 1025 600 
L 2825 600 
L 2825 150 
L 300 150 
L 300 250 
z
" transform="scale(0.015625)"/>
       </defs>
       <use xlink:href="#SimHei-32"/>
       <use xlink:href="#SimHei-30" x="50"/>
      </g>
     </g>
    </g>
    <g id="xtick_3">
     <g id="line2d_3">
      <g>
       <use xlink:href="#m736b90c24f" x="282.702002" y="355.49625" style="stroke: #000000; stroke-width: 0.8"/>
      </g>
     </g>
     <g id="text_3">
      <!-- 40 -->
      <g transform="translate(277.702002 369.37125) scale(0.1 -0.1)">
       <defs>
        <path id="SimHei-34" d="M 2000 1100 
L 75 1100 
L 75 1525 
L 2100 4450 
L 2475 4450 
L 2475 1525 
L 3075 1525 
L 3075 1100 
L 2475 1100 
L 2475 150 
L 2000 150 
L 2000 1100 
z
M 2000 1525 
L 2000 3500 
L 600 1525 
L 2000 1525 
z
" transform="scale(0.015625)"/>
       </defs>
       <use xlink:href="#SimHei-34"/>
       <use xlink:href="#SimHei-30" x="50"/>
      </g>
     </g>
    </g>
    <g id="xtick_4">
     <g id="line2d_4">
      <g>
       <use xlink:href="#m736b90c24f" x="385.18134" y="355.49625" style="stroke: #000000; stroke-width: 0.8"/>
      </g>
     </g>
     <g id="text_4">
      <!-- 60 -->
      <g transform="translate(380.18134 369.37125) scale(0.1 -0.1)">
       <defs>
        <path id="SimHei-36" d="M 250 1612 
Q 275 1975 387 2225 
Q 500 2475 725 2850 
L 1750 4450 
L 2325 4450 
L 1275 2800 
Q 1950 2975 2350 2750 
Q 2750 2525 2887 2237 
Q 3025 1950 3037 1612 
Q 3050 1275 2937 950 
Q 2825 625 2537 362 
Q 2250 100 1737 75 
Q 1225 50 862 262 
Q 500 475 362 862 
Q 225 1250 250 1612 
z
M 1025 787 
Q 1250 550 1625 525 
Q 2000 500 2250 775 
Q 2500 1050 2500 1575 
Q 2500 2100 2187 2300 
Q 1875 2500 1487 2450 
Q 1100 2400 925 2075 
Q 750 1750 775 1387 
Q 800 1025 1025 787 
z
" transform="scale(0.015625)"/>
       </defs>
       <use xlink:href="#SimHei-36"/>
       <use xlink:href="#SimHei-30" x="50"/>
      </g>
     </g>
    </g>
    <g id="xtick_5">
     <g id="line2d_5">
      <g>
       <use xlink:href="#m736b90c24f" x="487.660679" y="355.49625" style="stroke: #000000; stroke-width: 0.8"/>
      </g>
     </g>
     <g id="text_5">
      <!-- 80 -->
      <g transform="translate(482.660679 369.37125) scale(0.1 -0.1)">
       <defs>
        <path id="SimHei-38" d="M 175 1375 
Q 175 1675 325 1962 
Q 475 2250 825 2425 
Q 525 2600 425 2812 
Q 325 3025 312 3300 
Q 300 3575 387 3775 
Q 475 3975 650 4150 
Q 825 4325 1037 4387 
Q 1250 4450 1500 4450 
Q 1750 4450 1950 4400 
Q 2150 4350 2375 4187 
Q 2600 4025 2700 3725 
Q 2800 3425 2687 3025 
Q 2575 2625 2100 2400 
Q 2525 2275 2700 2012 
Q 2875 1750 2875 1375 
Q 2875 1000 2762 775 
Q 2650 550 2512 400 
Q 2375 250 2137 162 
Q 1900 75 1537 75 
Q 1175 75 912 162 
Q 650 250 475 425 
Q 300 600 237 837 
Q 175 1075 175 1375 
z
M 687 1400 
Q 675 1100 787 875 
Q 900 650 1200 587 
Q 1500 525 1825 600 
Q 2150 675 2275 950 
Q 2400 1225 2362 1500 
Q 2325 1775 2050 1962 
Q 1775 2150 1450 2125 
Q 1125 2100 912 1900 
Q 700 1700 687 1400 
z
M 775 3350 
Q 775 3100 950 2875 
Q 1125 2650 1500 2650 
Q 1875 2650 2062 2875 
Q 2250 3100 2237 3412 
Q 2225 3725 2012 3875 
Q 1800 4025 1437 4000 
Q 1075 3975 925 3787 
Q 775 3600 775 3350 
z
" transform="scale(0.015625)"/>
       </defs>
       <use xlink:href="#SimHei-38"/>
       <use xlink:href="#SimHei-30" x="50"/>
      </g>
     </g>
    </g>
    <g id="xtick_6">
     <g id="line2d_6">
      <g>
       <use xlink:href="#m736b90c24f" x="590.140018" y="355.49625" style="stroke: #000000; stroke-width: 0.8"/>
      </g>
     </g>
     <g id="text_6">
      <!-- 100 -->
      <g transform="translate(582.640018 369.37125) scale(0.1 -0.1)">
       <defs>
        <path id="SimHei-31" d="M 1400 3600 
Q 1075 3275 575 2975 
L 575 3450 
Q 1200 3875 1600 4450 
L 1900 4450 
L 1900 150 
L 1400 150 
L 1400 3600 
z
" transform="scale(0.015625)"/>
       </defs>
       <use xlink:href="#SimHei-31"/>
       <use xlink:href="#SimHei-30" x="50"/>
       <use xlink:href="#SimHei-30" x="100"/>
      </g>
     </g>
    </g>
    <g id="text_7">
     <!-- 迭代轮次 -->
     <g transform="translate(311.379687 382.629062) scale(0.1 -0.1)">
      <defs>
       <path id="SimHei-8fed" d="M 3900 1875 
Q 3600 1350 3287 1012 
Q 2975 675 2450 275 
Q 2350 475 2025 700 
Q 2600 975 3012 1425 
Q 3425 1875 3600 2450 
Q 2350 2450 1950 2425 
L 1950 2900 
Q 2375 2875 3675 2875 
Q 3725 3250 3750 3775 
L 2800 3775 
Q 2675 3450 2550 3175 
Q 2300 3300 2075 3350 
Q 2275 3675 2425 4112 
Q 2575 4550 2700 5100 
Q 2850 5000 3225 4925 
Q 3075 4725 2950 4200 
L 3750 4200 
Q 3750 4850 3700 5250 
L 4275 5225 
Q 4225 4925 4200 4200 
L 4950 4200 
Q 5175 4200 5575 4225 
L 5575 3725 
Q 5175 3775 4875 3775 
L 4200 3775 
Q 4175 3250 4125 2875 
L 5150 2875 
Q 5475 2875 5925 2900 
L 5925 2425 
Q 5475 2450 5075 2450 
L 4100 2450 
L 4050 2300 
Q 4650 1775 5725 700 
Q 5600 650 5275 300 
Q 4775 975 3900 1875 
z
M 1550 2950 
L 1550 625 
Q 2200 -25 3712 -12 
Q 5225 0 6125 100 
Q 5950 -225 5900 -475 
L 3575 -475 
Q 2975 -475 2525 -387 
Q 2075 -300 1725 -50 
Q 1375 200 1162 12 
Q 950 -175 650 -550 
Q 500 -350 250 -175 
Q 775 275 1075 575 
L 1075 2525 
Q 750 2525 350 2500 
L 350 2975 
Q 775 2950 1075 2950 
L 1550 2950 
z
M 1125 5025 
Q 1525 4275 1675 3900 
Q 1450 3875 1175 3650 
Q 950 4275 650 4750 
Q 900 4850 1125 5025 
z
" transform="scale(0.015625)"/>
       <path id="SimHei-4ee3" d="M 3300 2950 
Q 3175 4575 3150 5100 
Q 3300 5075 3725 5025 
Q 3675 4725 3800 3050 
Q 5000 3275 5650 3475 
L 5775 3000 
Q 5500 2975 3850 2625 
Q 4150 1050 4737 450 
Q 5325 -150 5412 125 
Q 5500 400 5525 725 
Q 5800 550 6075 500 
Q 5900 -200 5737 -425 
Q 5575 -650 5137 -500 
Q 4700 -350 4187 300 
Q 3675 950 3350 2525 
Q 2400 2325 2175 2250 
L 2025 2725 
Q 2425 2775 3300 2950 
z
M 2250 4975 
Q 2100 4725 1700 3650 
L 1700 475 
Q 1700 -50 1725 -600 
L 1200 -600 
Q 1225 -50 1225 475 
L 1225 2750 
Q 850 2150 600 1850 
Q 450 2050 225 2225 
Q 625 2600 1050 3425 
Q 1475 4250 1675 5200 
Q 2050 5025 2250 4975 
z
M 4700 4875 
Q 5150 4325 5325 4050 
Q 5100 3900 4875 3725 
Q 4650 4150 4300 4575 
Q 4500 4700 4700 4875 
z
" transform="scale(0.015625)"/>
       <path id="SimHei-8f6e" d="M 2200 3350 
Q 2175 3050 2175 2750 
L 2175 2425 
Q 2575 2425 2850 2450 
L 2850 2025 
Q 2550 2050 2175 2050 
L 2175 1150 
L 2975 1250 
Q 2925 1075 2925 850 
Q 2625 825 2175 750 
Q 2175 150 2200 -650 
L 1700 -650 
Q 1725 125 1725 700 
Q 700 550 400 475 
Q 300 775 250 975 
Q 600 1000 1725 1100 
L 1725 2050 
Q 1425 2050 1100 2025 
Q 775 2000 475 1925 
L 300 2425 
Q 450 2550 650 2900 
Q 850 3250 1075 3850 
Q 750 3850 275 3825 
L 275 4275 
Q 750 4250 1200 4250 
Q 1375 4875 1425 5200 
Q 1675 5075 1950 5025 
Q 1825 4750 1650 4250 
L 2075 4250 
Q 2600 4250 2975 4275 
L 2975 3825 
Q 2550 3850 2100 3850 
L 1550 3850 
Q 1175 2900 900 2425 
L 1725 2425 
Q 1700 3050 1700 3350 
L 2200 3350 
z
M 3750 1625 
Q 4750 2075 5200 2550 
Q 5475 2225 5625 2125 
Q 5175 1875 4750 1650 
Q 4325 1425 3750 1175 
L 3750 225 
Q 3750 -75 4050 -100 
L 4925 -100 
Q 5250 -125 5325 137 
Q 5400 400 5400 600 
Q 5800 350 5975 300 
Q 5750 -225 5612 -362 
Q 5475 -500 5175 -500 
L 3850 -500 
Q 3300 -500 3300 0 
L 3300 1900 
Q 3300 2475 3275 2900 
L 3775 2900 
Q 3750 2450 3750 2100 
L 3750 1625 
z
M 4375 4800 
Q 4875 3975 5337 3650 
Q 5800 3325 6200 3125 
Q 5975 2875 5825 2650 
Q 5200 3075 4825 3487 
Q 4450 3900 4200 4350 
Q 3875 3825 3587 3412 
Q 3300 3000 2925 2625 
Q 2725 2800 2450 3000 
Q 2775 3200 3037 3487 
Q 3300 3775 3512 4150 
Q 3725 4525 3950 5275 
Q 4300 5100 4550 5000 
L 4375 4800 
z
" transform="scale(0.015625)"/>
       <path id="SimHei-6b21" d="M 4150 3025 
Q 4000 2550 4050 2187 
Q 4100 1825 4275 1450 
Q 4450 1075 4800 750 
Q 5150 425 5475 212 
Q 5800 0 6150 -150 
Q 5875 -350 5750 -625 
Q 5250 -325 4887 -25 
Q 4525 275 4275 612 
Q 4025 950 3825 1425 
Q 3525 625 2950 125 
Q 2375 -375 1850 -650 
Q 1675 -400 1475 -225 
Q 2025 0 2487 362 
Q 2950 725 3162 1100 
Q 3375 1475 3450 1825 
Q 3525 2175 3537 2400 
Q 3550 2625 3525 3125 
Q 3825 3050 4150 3025 
z
M 3700 4975 
Q 3625 4900 3475 4575 
Q 3325 4250 3250 4075 
L 5775 4075 
Q 5650 3725 5550 3362 
Q 5450 3000 5275 2500 
Q 5000 2575 4775 2600 
Q 5025 3350 5100 3650 
L 3100 3650 
Q 2975 3400 2812 3100 
Q 2650 2800 2425 2450 
Q 2275 2600 1975 2700 
Q 2300 3050 2625 3762 
Q 2950 4475 3125 5200 
Q 3450 5025 3700 4975 
z
M 2025 2000 
Q 1825 1675 1475 1087 
Q 1125 500 725 -200 
Q 500 -25 250 175 
Q 725 725 1037 1262 
Q 1350 1800 1575 2325 
Q 1750 2175 2025 2000 
z
M 900 4750 
Q 1725 3725 1950 3375 
Q 1750 3250 1500 3050 
Q 1250 3525 500 4425 
Q 700 4575 900 4750 
z
" transform="scale(0.015625)"/>
      </defs>
      <use xlink:href="#SimHei-8fed"/>
      <use xlink:href="#SimHei-4ee3" x="100"/>
      <use xlink:href="#SimHei-8f6e" x="200"/>
      <use xlink:href="#SimHei-6b21" x="300"/>
     </g>
    </g>
   </g>
   <g id="matplotlib.axis_2">
    <g id="ytick_1">
     <g id="line2d_7">
      <defs>
       <path id="m9281f40139" d="M 0 0 
L -3.5 0 
" style="stroke: #000000; stroke-width: 0.8"/>
      </defs>
      <g>
       <use xlink:href="#m9281f40139" x="52.379687" y="340.37625" style="stroke: #000000; stroke-width: 0.8"/>
      </g>
     </g>
     <g id="text_8">
      <!-- 90.00 -->
      <g transform="translate(20.379687 343.81375) scale(0.1 -0.1)">
       <defs>
        <path id="SimHei-39" d="M 800 75 
Q 1350 1000 1700 1750 
Q 1075 1650 662 1912 
Q 250 2175 162 2625 
Q 75 3075 175 3437 
Q 275 3800 487 4037 
Q 700 4275 1000 4375 
Q 1300 4475 1537 4475 
Q 1775 4475 2025 4375 
Q 2275 4275 2475 4075 
Q 2675 3875 2750 3662 
Q 2825 3450 2825 3112 
Q 2825 2775 2575 2250 
Q 2325 1725 1350 75 
L 800 75 
z
M 662 2875 
Q 700 2550 937 2337 
Q 1175 2125 1450 2150 
Q 1725 2175 1887 2300 
Q 2050 2425 2200 2725 
Q 2300 3100 2250 3362 
Q 2200 3625 1987 3800 
Q 1775 3975 1525 3975 
Q 1375 4000 1137 3900 
Q 900 3800 762 3500 
Q 625 3200 662 2875 
z
" transform="scale(0.015625)"/>
        <path id="SimHei-2e" d="M 1075 125 
L 500 125 
L 500 675 
L 1075 675 
L 1075 125 
z
" transform="scale(0.015625)"/>
       </defs>
       <use xlink:href="#SimHei-39"/>
       <use xlink:href="#SimHei-30" x="50"/>
       <use xlink:href="#SimHei-2e" x="100"/>
       <use xlink:href="#SimHei-30" x="150"/>
       <use xlink:href="#SimHei-30" x="200"/>
      </g>
     </g>
    </g>
    <g id="ytick_2">
     <g id="line2d_8">
      <g>
       <use xlink:href="#m9281f40139" x="52.379687" y="302.57625" style="stroke: #000000; stroke-width: 0.8"/>
      </g>
     </g>
     <g id="text_9">
      <!-- 90.25 -->
      <g transform="translate(20.379687 306.01375) scale(0.1 -0.1)">
       <defs>
        <path id="SimHei-35" d="M 550 1325 
Q 725 650 1150 575 
Q 1575 500 1837 662 
Q 2100 825 2212 1087 
Q 2325 1350 2312 1675 
Q 2300 2000 2137 2225 
Q 1975 2450 1725 2525 
Q 1475 2600 1162 2525 
Q 850 2450 650 2175 
L 225 2225 
Q 275 2375 700 4375 
L 2675 4375 
L 2675 3925 
L 1075 3925 
Q 950 3250 825 2850 
Q 1200 3025 1525 3012 
Q 1850 3000 2150 2862 
Q 2450 2725 2587 2487 
Q 2725 2250 2787 2012 
Q 2850 1775 2837 1500 
Q 2825 1225 2725 937 
Q 2625 650 2425 462 
Q 2225 275 1937 162 
Q 1650 50 1275 75 
Q 900 100 562 350 
Q 225 600 100 1200 
L 550 1325 
z
" transform="scale(0.015625)"/>
       </defs>
       <use xlink:href="#SimHei-39"/>
       <use xlink:href="#SimHei-30" x="50"/>
       <use xlink:href="#SimHei-2e" x="100"/>
       <use xlink:href="#SimHei-32" x="150"/>
       <use xlink:href="#SimHei-35" x="200"/>
      </g>
     </g>
    </g>
    <g id="ytick_3">
     <g id="line2d_9">
      <g>
       <use xlink:href="#m9281f40139" x="52.379687" y="264.77625" style="stroke: #000000; stroke-width: 0.8"/>
      </g>
     </g>
     <g id="text_10">
      <!-- 90.50 -->
      <g transform="translate(20.379687 268.21375) scale(0.1 -0.1)">
       <use xlink:href="#SimHei-39"/>
       <use xlink:href="#SimHei-30" x="50"/>
       <use xlink:href="#SimHei-2e" x="100"/>
       <use xlink:href="#SimHei-35" x="150"/>
       <use xlink:href="#SimHei-30" x="200"/>
      </g>
     </g>
    </g>
    <g id="ytick_4">
     <g id="line2d_10">
      <g>
       <use xlink:href="#m9281f40139" x="52.379687" y="226.97625" style="stroke: #000000; stroke-width: 0.8"/>
      </g>
     </g>
     <g id="text_11">
      <!-- 90.75 -->
      <g transform="translate(20.379687 230.41375) scale(0.1 -0.1)">
       <defs>
        <path id="SimHei-37" d="M 850 150 
Q 1300 2050 2425 3925 
L 275 3925 
L 275 4375 
L 2950 4375 
L 2950 3950 
Q 1775 2050 1400 150 
L 850 150 
z
" transform="scale(0.015625)"/>
       </defs>
       <use xlink:href="#SimHei-39"/>
       <use xlink:href="#SimHei-30" x="50"/>
       <use xlink:href="#SimHei-2e" x="100"/>
       <use xlink:href="#SimHei-37" x="150"/>
       <use xlink:href="#SimHei-35" x="200"/>
      </g>
     </g>
    </g>
    <g id="ytick_5">
     <g id="line2d_11">
      <g>
       <use xlink:href="#m9281f40139" x="52.379687" y="189.17625" style="stroke: #000000; stroke-width: 0.8"/>
      </g>
     </g>
     <g id="text_12">
      <!-- 91.00 -->
      <g transform="translate(20.379687 192.61375) scale(0.1 -0.1)">
       <use xlink:href="#SimHei-39"/>
       <use xlink:href="#SimHei-31" x="50"/>
       <use xlink:href="#SimHei-2e" x="100"/>
       <use xlink:href="#SimHei-30" x="150"/>
       <use xlink:href="#SimHei-30" x="200"/>
      </g>
     </g>
    </g>
    <g id="ytick_6">
     <g id="line2d_12">
      <g>
       <use xlink:href="#m9281f40139" x="52.379687" y="151.37625" style="stroke: #000000; stroke-width: 0.8"/>
      </g>
     </g>
     <g id="text_13">
      <!-- 91.25 -->
      <g transform="translate(20.379687 154.81375) scale(0.1 -0.1)">
       <use xlink:href="#SimHei-39"/>
       <use xlink:href="#SimHei-31" x="50"/>
       <use xlink:href="#SimHei-2e" x="100"/>
       <use xlink:href="#SimHei-32" x="150"/>
       <use xlink:href="#SimHei-35" x="200"/>
      </g>
     </g>
    </g>
    <g id="ytick_7">
     <g id="line2d_13">
      <g>
       <use xlink:href="#m9281f40139" x="52.379687" y="113.57625" style="stroke: #000000; stroke-width: 0.8"/>
      </g>
     </g>
     <g id="text_14">
      <!-- 91.50 -->
      <g transform="translate(20.379687 117.01375) scale(0.1 -0.1)">
       <use xlink:href="#SimHei-39"/>
       <use xlink:href="#SimHei-31" x="50"/>
       <use xlink:href="#SimHei-2e" x="100"/>
       <use xlink:href="#SimHei-35" x="150"/>
       <use xlink:href="#SimHei-30" x="200"/>
      </g>
     </g>
    </g>
    <g id="ytick_8">
     <g id="line2d_14">
      <g>
       <use xlink:href="#m9281f40139" x="52.379687" y="75.77625" style="stroke: #000000; stroke-width: 0.8"/>
      </g>
     </g>
     <g id="text_15">
      <!-- 91.75 -->
      <g transform="translate(20.379687 79.21375) scale(0.1 -0.1)">
       <use xlink:href="#SimHei-39"/>
       <use xlink:href="#SimHei-31" x="50"/>
       <use xlink:href="#SimHei-2e" x="100"/>
       <use xlink:href="#SimHei-37" x="150"/>
       <use xlink:href="#SimHei-35" x="200"/>
      </g>
     </g>
    </g>
    <g id="ytick_9">
     <g id="line2d_15">
      <g>
       <use xlink:href="#m9281f40139" x="52.379687" y="37.97625" style="stroke: #000000; stroke-width: 0.8"/>
      </g>
     </g>
     <g id="text_16">
      <!-- 92.00 -->
      <g transform="translate(20.379687 41.41375) scale(0.1 -0.1)">
       <use xlink:href="#SimHei-39"/>
       <use xlink:href="#SimHei-32" x="50"/>
       <use xlink:href="#SimHei-2e" x="100"/>
       <use xlink:href="#SimHei-30" x="150"/>
       <use xlink:href="#SimHei-30" x="200"/>
      </g>
     </g>
    </g>
    <g id="text_17">
     <!-- 靠桥率 -->
     <g transform="translate(15.129687 204.17625) rotate(-90) scale(0.1 -0.1)">
      <defs>
       <path id="SimHei-9760" d="M 5150 3150 
Q 5125 2950 5125 2600 
Q 5125 2250 5150 2025 
L 4000 2025 
L 4000 1775 
L 5100 1775 
Q 5425 1775 5850 1800 
L 5850 1400 
Q 5475 1425 5100 1425 
L 4000 1425 
L 4000 1025 
L 5000 1025 
Q 5325 1025 5625 1050 
L 5625 625 
Q 5325 650 5000 650 
L 4000 650 
L 4000 275 
L 5425 275 
Q 5650 275 5975 300 
L 5975 -125 
Q 5625 -100 5425 -100 
L 4000 -100 
Q 4000 -375 4025 -600 
L 3575 -600 
L 3575 2025 
L 2875 2025 
L 2875 -600 
L 2425 -600 
Q 2450 -300 2450 -100 
L 1200 -100 
Q 800 -100 450 -125 
L 450 300 
Q 800 275 1200 275 
L 2450 275 
L 2450 650 
L 1525 650 
Q 1175 650 775 625 
L 775 1050 
Q 1150 1025 1525 1025 
L 2450 1025 
L 2450 1425 
L 1375 1425 
Q 975 1425 600 1400 
L 600 1800 
Q 950 1775 1425 1775 
L 2450 1775 
L 2450 2025 
L 1300 2025 
Q 1325 2250 1325 2600 
Q 1325 2950 1300 3150 
L 5150 3150 
z
M 2000 4900 
Q 1850 4750 1750 4625 
L 3025 4625 
Q 3025 4800 3000 5075 
L 3500 5075 
Q 3475 4800 3475 4625 
L 4650 4625 
Q 4975 4625 5325 4650 
L 5325 4225 
Q 4975 4250 4650 4250 
L 3475 4250 
L 3475 3800 
L 4975 3800 
Q 5500 3800 5950 3825 
L 5950 3425 
Q 5500 3450 4975 3450 
L 1350 3450 
Q 825 3450 375 3425 
L 375 3825 
Q 825 3800 1350 3800 
L 3025 3800 
L 3025 4250 
L 1500 4250 
Q 1400 4125 1200 3900 
Q 1050 4050 850 4150 
Q 1150 4450 1300 4675 
Q 1450 4900 1550 5125 
Q 1825 5000 2000 4900 
z
M 4700 2400 
L 4700 2775 
L 1750 2775 
L 1750 2400 
L 4700 2400 
z
" transform="scale(0.015625)"/>
       <path id="SimHei-6865" d="M 5550 4725 
Q 5250 4750 4300 4600 
Q 4250 4225 4175 3800 
L 5075 3800 
Q 5375 3800 5800 3825 
L 5800 3400 
Q 5375 3425 4775 3425 
Q 4850 2975 5187 2612 
Q 5525 2250 6200 2025 
Q 5950 1875 5800 1575 
Q 5425 1775 5100 2075 
Q 5050 1800 5050 1425 
L 5050 275 
Q 5050 -75 5075 -525 
L 4600 -525 
Q 4625 -225 4625 275 
L 4625 1425 
Q 4625 1800 4600 2100 
L 5075 2100 
Q 4500 2650 4350 3425 
L 4075 3425 
Q 3800 2625 3425 2225 
Q 3800 2175 3975 2175 
Q 3900 1900 3850 1337 
Q 3800 775 3637 312 
Q 3475 -150 3050 -550 
Q 2800 -325 2500 -250 
Q 3175 200 3312 1025 
Q 3450 1850 3400 2175 
Q 3025 1750 2625 1450 
Q 2500 1625 2175 1800 
Q 2850 2175 3162 2600 
Q 3475 3025 3625 3425 
Q 3075 3425 2650 3400 
L 2650 3825 
Q 3100 3800 3750 3800 
Q 3800 4250 3825 4550 
Q 3175 4475 2825 4450 
Q 2750 4675 2625 4850 
Q 2875 4850 3725 4937 
Q 4575 5025 5275 5250 
Q 5375 5000 5550 4725 
z
M 2050 2050 
Q 1900 2450 1675 2850 
L 1675 400 
Q 1675 -75 1700 -575 
L 1225 -575 
Q 1250 -75 1250 400 
L 1250 2425 
Q 1075 1725 600 1000 
Q 450 1225 250 1375 
Q 650 1950 850 2437 
Q 1050 2925 1125 3425 
Q 775 3425 450 3375 
L 450 3825 
Q 800 3800 1250 3800 
L 1250 4425 
Q 1250 4800 1225 5175 
L 1725 5175 
Q 1675 4875 1675 4425 
L 1675 3800 
Q 2000 3800 2325 3825 
L 2325 3400 
Q 2000 3425 1675 3425 
L 1675 3000 
Q 1850 3100 1950 3175 
Q 2200 2725 2450 2250 
Q 2250 2200 2050 2050 
z
" transform="scale(0.015625)"/>
       <path id="SimHei-7387" d="M 3325 5150 
Q 3425 4900 3550 4525 
L 4800 4525 
Q 5250 4525 5800 4550 
L 5800 4125 
Q 5250 4175 4775 4175 
L 2800 4175 
Q 2975 4050 3300 3900 
Q 3075 3750 2875 3537 
Q 2675 3325 2475 3125 
L 3275 3125 
Q 3575 3425 3775 3775 
Q 4000 3600 4275 3425 
Q 3950 3250 3600 2875 
Q 3250 2500 2625 2000 
L 3850 2100 
Q 3725 2250 3600 2425 
Q 3750 2475 4000 2650 
Q 4250 2350 4700 1700 
Q 4475 1625 4225 1450 
Q 4175 1600 4025 1775 
Q 3700 1750 3425 1750 
L 3425 1050 
L 5150 1050 
Q 5675 1050 6100 1075 
L 6100 650 
Q 5700 675 5125 675 
L 3425 675 
L 3425 175 
Q 3425 -300 3450 -625 
L 2900 -625 
Q 2925 -300 2925 175 
L 2925 675 
L 1325 675 
Q 825 675 325 650 
L 325 1075 
Q 825 1050 1350 1050 
L 2925 1050 
L 2925 1700 
Q 2700 1675 2475 1637 
Q 2250 1600 2025 1525 
Q 1950 1775 1850 2000 
Q 2075 2025 2325 2200 
Q 2575 2375 2975 2800 
Q 2300 2725 2025 2625 
Q 1975 2875 1850 3175 
Q 2075 3175 2325 3487 
Q 2575 3800 2750 4175 
L 1700 4175 
Q 1150 4175 650 4125 
L 650 4550 
Q 1150 4525 1550 4525 
L 2975 4525 
Q 2900 4825 2800 5025 
Q 3025 5075 3325 5150 
z
M 1625 2575 
Q 1725 2400 1825 2200 
Q 1575 2050 1325 1862 
Q 1075 1675 800 1425 
Q 625 1675 475 1875 
Q 800 2025 1100 2212 
Q 1400 2400 1625 2575 
z
M 4850 2650 
Q 5125 2475 5337 2337 
Q 5550 2200 5875 1950 
Q 5675 1800 5500 1600 
Q 5300 1775 5062 1975 
Q 4825 2175 4575 2325 
Q 4725 2475 4850 2650 
z
M 5725 3525 
Q 5550 3450 5300 3262 
Q 5050 3075 4800 2825 
Q 4625 3050 4475 3175 
Q 4700 3325 4875 3487 
Q 5050 3650 5300 3925 
Q 5525 3700 5725 3525 
z
M 1050 3850 
Q 1425 3600 1775 3275 
Q 1575 3100 1425 2925 
Q 1075 3300 675 3525 
Q 875 3700 1050 3850 
z
" transform="scale(0.015625)"/>
      </defs>
      <use xlink:href="#SimHei-9760"/>
      <use xlink:href="#SimHei-6865" x="100"/>
      <use xlink:href="#SimHei-7387" x="200"/>
     </g>
    </g>
   </g>
   <g id="patch_3">
    <path d="M 52.379687 355.49625 
L 52.379687 22.85625 
" style="fill: none; stroke: #000000; stroke-width: 0.8; stroke-linejoin: miter; stroke-linecap: square"/>
   </g>
   <g id="patch_4">
    <path d="M 610.379688 355.49625 
L 610.379688 22.85625 
" style="fill: none; stroke: #000000; stroke-width: 0.8; stroke-linejoin: miter; stroke-linecap: square"/>
   </g>
   <g id="patch_5">
    <path d="M 52.379688 355.49625 
L 610.379688 355.49625 
" style="fill: none; stroke: #000000; stroke-width: 0.8; stroke-linejoin: miter; stroke-linecap: square"/>
   </g>
   <g id="patch_6">
    <path d="M 52.379688 22.85625 
L 610.379688 22.85625 
" style="fill: none; stroke: #000000; stroke-width: 0.8; stroke-linejoin: miter; stroke-linecap: square"/>
   </g>
   <g id="text_18">
    <!-- 靠桥率收敛图 -->
    <g transform="translate(295.379687 16.85625) scale(0.12 -0.12)">
     <defs>
      <path id="SimHei-6536" d="M 4250 5050 
Q 4125 4850 3750 4050 
L 5150 4050 
Q 5675 4050 6125 4075 
L 6125 3600 
Q 5675 3625 5300 3625 
Q 5225 2625 5025 1975 
Q 4825 1325 4575 900 
Q 4900 500 5287 275 
Q 5675 50 6200 -75 
Q 5900 -275 5800 -550 
Q 5300 -350 4950 -100 
Q 4600 150 4275 525 
Q 3800 0 2775 -625 
Q 2650 -425 2300 -225 
Q 3275 150 3950 925 
Q 3775 1325 3612 1787 
Q 3450 2250 3250 3000 
Q 2975 2450 2825 2275 
Q 2650 2400 2425 2525 
Q 2775 3025 3137 3837 
Q 3500 4650 3625 5250 
Q 3925 5125 4250 5050 
z
M 975 4275 
Q 925 3950 925 3450 
L 925 1575 
L 1775 1725 
L 1775 4425 
Q 1775 4775 1750 5150 
L 2250 5150 
Q 2225 4850 2225 4450 
L 2225 300 
Q 2225 -50 2250 -550 
L 1750 -550 
Q 1775 -25 1775 350 
L 1775 1350 
Q 625 1050 500 925 
Q 375 1125 225 1350 
Q 450 1475 450 1800 
L 450 3575 
Q 450 3925 425 4275 
L 975 4275 
z
M 3725 3150 
Q 3800 2700 3962 2212 
Q 4125 1725 4300 1375 
Q 4725 2150 4825 3625 
L 3575 3625 
Q 3400 3275 3300 3100 
L 3725 3150 
z
" transform="scale(0.015625)"/>
      <path id="SimHei-655b" d="M 3525 2325 
Q 3375 2500 3125 2675 
Q 3525 3150 3775 3837 
Q 4025 4525 4125 5175 
Q 4350 5100 4700 5000 
Q 4625 4975 4537 4712 
Q 4450 4450 4300 4025 
L 5600 4025 
Q 5825 4025 6100 4050 
L 6100 3575 
Q 5725 3600 5525 3600 
Q 5450 2850 5325 2162 
Q 5200 1475 4900 800 
Q 5350 250 6200 -50 
Q 5975 -275 5850 -575 
Q 5050 -75 4625 425 
Q 4100 -200 3250 -675 
Q 3100 -350 2925 -175 
Q 3750 75 4325 775 
Q 4075 1225 3900 1687 
Q 3725 2150 3650 2550 
L 3525 2325 
z
M 2975 2925 
Q 2650 2950 2075 2950 
Q 1450 2950 1175 2925 
L 1175 3325 
Q 900 3000 575 2750 
Q 425 2975 175 3125 
Q 750 3525 1237 4187 
Q 1725 4850 1875 5275 
Q 2175 5100 2400 5000 
Q 2325 4900 2200 4700 
Q 2875 4300 3525 3850 
Q 3325 3575 3175 3375 
Q 2950 3625 2612 3900 
Q 2275 4175 1975 4375 
Q 1650 3925 1225 3375 
Q 1500 3350 2075 3350 
Q 2650 3350 2975 3375 
L 2975 2925 
z
M 3325 2450 
Q 3175 2250 3050 1725 
Q 2925 1200 2775 625 
Q 3075 675 3475 775 
Q 3400 575 3450 325 
Q 2300 150 1600 0 
Q 900 -150 725 -250 
Q 650 75 550 325 
Q 1125 350 2325 550 
Q 2475 1125 2600 1725 
Q 2725 2325 2750 2600 
Q 3000 2525 3325 2450 
z
M 3925 3000 
Q 4050 2500 4262 1925 
Q 4475 1350 4600 1175 
Q 4825 1725 4925 2287 
Q 5025 2850 5075 3600 
L 4175 3600 
Q 4100 3375 3925 3000 
z
M 1025 2350 
Q 1275 1625 1450 925 
Q 1200 850 1000 775 
Q 725 1875 575 2175 
Q 825 2250 1025 2350 
z
M 2000 2525 
Q 2150 1975 2275 1250 
Q 2050 1225 1825 1150 
Q 1775 1525 1575 2425 
Q 1775 2475 2000 2525 
z
" transform="scale(0.015625)"/>
      <path id="SimHei-56fe" d="M 5800 4975 
Q 5775 4350 5775 3600 
L 5775 925 
Q 5775 150 5800 -600 
L 5300 -600 
L 5300 -275 
L 1125 -275 
L 1125 -650 
L 625 -650 
Q 650 125 650 950 
L 650 3600 
Q 650 4325 625 4975 
L 5800 4975 
z
M 5300 150 
L 5300 4575 
L 1125 4575 
L 1125 150 
L 5300 150 
z
M 3225 4250 
Q 3075 4100 2950 3925 
L 4625 3925 
Q 4525 3700 4300 3375 
Q 4075 3050 3600 2600 
Q 4350 2225 5075 2150 
Q 4900 1925 4775 1675 
Q 3850 1950 3225 2350 
Q 2500 1875 1675 1650 
Q 1600 1875 1400 2075 
Q 2200 2200 2875 2600 
Q 2525 2925 2375 3150 
Q 2150 2900 1900 2650 
Q 1725 2850 1525 2950 
Q 1950 3300 2250 3737 
Q 2550 4175 2675 4475 
Q 2925 4350 3225 4250 
z
M 2450 1275 
Q 3550 950 4100 725 
Q 3975 525 3850 300 
Q 2825 725 2275 850 
Q 2375 1050 2450 1275 
z
M 2925 2050 
Q 3775 1700 4075 1600 
Q 3950 1400 3850 1150 
Q 3000 1550 2700 1650 
Q 2825 1825 2925 2050 
z
M 2625 3450 
Q 3000 3025 3275 2850 
Q 3600 3100 3875 3525 
L 2675 3525 
L 2625 3450 
z
" transform="scale(0.015625)"/>
     </defs>
     <use xlink:href="#SimHei-9760"/>
     <use xlink:href="#SimHei-6865" x="100"/>
     <use xlink:href="#SimHei-7387" x="200"/>
     <use xlink:href="#SimHei-6536" x="300"/>
     <use xlink:href="#SimHei-655b" x="400"/>
     <use xlink:href="#SimHei-56fe" x="500"/>
    </g>
   </g>
  </g>
 </g>
 <defs>
  <clipPath id="pc81fc8fa3b">
   <rect x="52.379687" y="22.85625" width="558" height="332.64"/>
  </clipPath>
 </defs>
</svg>
